M48
; DRILL file {KiCad 9.0.0} date 2025-05-29T23:41:59+0200
; FORMAT={-:-/ absolute / inch / decimal}
; #@! TF.CreationDate,2025-05-29T23:41:59+02:00
; #@! TF.GenerationSoftware,Kicad,Pcbnew,9.0.0
; #@! TF.FileFunction,Plated,1,2,PTH
FMAT,2
INCH
; #@! TA.AperFunction,Plated,PTH,ViaDrill
T1C0.0276
; #@! TA.AperFunction,Plated,PTH,ComponentDrill
T2C0.0394
%
G90
G05
T1
X1.912Y-2.0466
X2.0944Y-1.843
X3.548Y-2.0342
X3.5681Y-1.807
X3.7432Y-2.1151
T2
X2.3846Y-1.7358
X2.3846Y-2.0067
X2.4846Y-1.7358
X2.4846Y-2.0067
X2.5846Y-1.7358
X2.5846Y-2.0067
X2.6846Y-1.7358
X2.6846Y-2.0067
X2.7846Y-1.7358
X2.7846Y-2.0067
X2.8846Y-1.7358
X2.8846Y-2.0067
X2.9846Y-1.7358
X2.9846Y-2.0067
X3.0846Y-1.7358
X3.0846Y-2.0067
X3.1846Y-1.7358
X3.1846Y-2.0067
X3.2846Y-1.7358
X3.2846Y-2.0067
M30
