%TF.GenerationSoftware,KiCad,Pcbnew,9.0.0*%
%TF.CreationDate,2025-05-29T23:41:57+02:00*%
%TF.ProjectId,hunity-gru-master,68756e69-7479-42d6-9772-752d6d617374,1.0*%
%TF.SameCoordinates,Original*%
%TF.FileFunction,Copper,L1,Top*%
%TF.FilePolarity,Positive*%
%FSLAX46Y46*%
G04 Gerber Fmt 4.6, Leading zero omitted, Abs format (unit mm)*
G04 Created by KiCad (PCBNEW 9.0.0) date 2025-05-29 23:41:57*
%MOMM*%
%LPD*%
G01*
G04 APERTURE LIST*
G04 Aperture macros list*
%AMRoundRect*
0 Rectangle with rounded corners*
0 $1 Rounding radius*
0 $2 $3 $4 $5 $6 $7 $8 $9 X,Y pos of 4 corners*
0 Add a 4 corners polygon primitive as box body*
4,1,4,$2,$3,$4,$5,$6,$7,$8,$9,$2,$3,0*
0 Add four circle primitives for the rounded corners*
1,1,$1+$1,$2,$3*
1,1,$1+$1,$4,$5*
1,1,$1+$1,$6,$7*
1,1,$1+$1,$8,$9*
0 Add four rect primitives between the rounded corners*
20,1,$1+$1,$2,$3,$4,$5,0*
20,1,$1+$1,$4,$5,$6,$7,0*
20,1,$1+$1,$6,$7,$8,$9,0*
20,1,$1+$1,$8,$9,$2,$3,0*%
G04 Aperture macros list end*
%TA.AperFunction,SMDPad,CuDef*%
%ADD10RoundRect,0.200000X0.275000X-0.200000X0.275000X0.200000X-0.275000X0.200000X-0.275000X-0.200000X0*%
%TD*%
%TA.AperFunction,SMDPad,CuDef*%
%ADD11RoundRect,0.225000X0.225000X0.250000X-0.225000X0.250000X-0.225000X-0.250000X0.225000X-0.250000X0*%
%TD*%
%TA.AperFunction,ComponentPad*%
%ADD12C,1.700000*%
%TD*%
%TA.AperFunction,ComponentPad*%
%ADD13R,1.700000X1.700000*%
%TD*%
%TA.AperFunction,SMDPad,CuDef*%
%ADD14RoundRect,0.200000X-0.275000X0.200000X-0.275000X-0.200000X0.275000X-0.200000X0.275000X0.200000X0*%
%TD*%
%TA.AperFunction,SMDPad,CuDef*%
%ADD15RoundRect,0.225000X-0.225000X-0.250000X0.225000X-0.250000X0.225000X0.250000X-0.225000X0.250000X0*%
%TD*%
%TA.AperFunction,SMDPad,CuDef*%
%ADD16RoundRect,0.225000X0.250000X-0.225000X0.250000X0.225000X-0.250000X0.225000X-0.250000X-0.225000X0*%
%TD*%
%TA.AperFunction,SMDPad,CuDef*%
%ADD17RoundRect,0.150000X-0.150000X0.512500X-0.150000X-0.512500X0.150000X-0.512500X0.150000X0.512500X0*%
%TD*%
%TA.AperFunction,SMDPad,CuDef*%
%ADD18R,0.500000X0.350000*%
%TD*%
%TA.AperFunction,SMDPad,CuDef*%
%ADD19RoundRect,0.218750X0.256250X-0.218750X0.256250X0.218750X-0.256250X0.218750X-0.256250X-0.218750X0*%
%TD*%
%TA.AperFunction,ViaPad*%
%ADD20C,1.400000*%
%TD*%
%TA.AperFunction,Conductor*%
%ADD21C,0.800000*%
%TD*%
%TA.AperFunction,Conductor*%
%ADD22C,0.300000*%
%TD*%
%TA.AperFunction,Conductor*%
%ADD23C,0.500000*%
%TD*%
%TA.AperFunction,Conductor*%
%ADD24C,0.400000*%
%TD*%
G04 APERTURE END LIST*
D10*
%TO.P,R1,1*%
%TO.N,/3.3_exp*%
X87299000Y-49128000D03*
%TO.P,R1,2*%
%TO.N,/sda*%
X87299000Y-47478000D03*
%TD*%
D11*
%TO.P,C4,1*%
%TO.N,/3.3_exp*%
X93150000Y-51678500D03*
%TO.P,C4,2*%
%TO.N,GND*%
X91600000Y-51678500D03*
%TD*%
D12*
%TO.P,J1,1,Pin_1*%
%TO.N,/en6*%
X60570000Y-44090000D03*
%TO.P,J1,2,Pin_2*%
%TO.N,/en5*%
X63110000Y-44090000D03*
%TO.P,J1,3,Pin_3*%
%TO.N,/en4*%
X65650000Y-44090000D03*
%TO.P,J1,4,Pin_4*%
%TO.N,/en3*%
X68190000Y-44090000D03*
%TO.P,J1,5,Pin_5*%
%TO.N,/en2*%
X70730000Y-44090000D03*
%TO.P,J1,6,Pin_6*%
%TO.N,/en1*%
X73270000Y-44090000D03*
D13*
%TO.P,J1,7,Pin_7*%
%TO.N,GND*%
X75810000Y-44090000D03*
D12*
%TO.P,J1,8,Pin_8*%
%TO.N,/sda*%
X78350000Y-44090000D03*
%TO.P,J1,9,Pin_9*%
%TO.N,/scl*%
X80890000Y-44090000D03*
%TO.P,J1,10,Pin_10*%
%TO.N,+5V*%
X83430000Y-44090000D03*
%TD*%
D14*
%TO.P,R3,1*%
%TO.N,Net-(D1-K)*%
X95078000Y-50640000D03*
%TO.P,R3,2*%
%TO.N,GND*%
X95078000Y-52290000D03*
%TD*%
D15*
%TO.P,C2,1*%
%TO.N,+3.3V*%
X50153500Y-46801000D03*
%TO.P,C2,2*%
%TO.N,GND*%
X51703500Y-46801000D03*
%TD*%
D16*
%TO.P,C1,1*%
%TO.N,GND*%
X48554500Y-50514000D03*
%TO.P,C1,2*%
%TO.N,+3.3V*%
X48554500Y-48964000D03*
%TD*%
D11*
%TO.P,C3,1*%
%TO.N,+5V*%
X93664000Y-45904500D03*
%TO.P,C3,2*%
%TO.N,GND*%
X92114000Y-45904500D03*
%TD*%
D14*
%TO.P,R2,1*%
%TO.N,/scl*%
X87299000Y-54462000D03*
%TO.P,R2,2*%
%TO.N,/3.3_exp*%
X87299000Y-56112000D03*
%TD*%
D17*
%TO.P,U2,1,VIN*%
%TO.N,+5V*%
X93298000Y-47653000D03*
%TO.P,U2,2,GND*%
%TO.N,GND*%
X92348000Y-47653000D03*
%TO.P,U2,3,EN*%
%TO.N,+5V*%
X91398000Y-47653000D03*
%TO.P,U2,4,NC*%
%TO.N,unconnected-(U2-NC-Pad4)*%
X91398000Y-49928000D03*
%TO.P,U2,5,VOUT*%
%TO.N,/3.3_exp*%
X93298000Y-49928000D03*
%TD*%
D18*
%TO.P,U1,1,GND*%
%TO.N,GND*%
X51943500Y-48078000D03*
%TO.P,U1,2,CSB*%
%TO.N,+3.3V*%
X51943500Y-48728000D03*
%TO.P,U1,3,SDI*%
%TO.N,/sda*%
X51943500Y-49378000D03*
%TO.P,U1,4,SCK*%
%TO.N,/scl*%
X51943500Y-50028000D03*
%TO.P,U1,5,SDO*%
%TO.N,GND*%
X49893500Y-50028000D03*
%TO.P,U1,6,VDDIO*%
%TO.N,+3.3V*%
X49893500Y-49378000D03*
%TO.P,U1,7,GND*%
%TO.N,GND*%
X49893500Y-48728000D03*
%TO.P,U1,8,VDD*%
%TO.N,+3.3V*%
X49893500Y-48078000D03*
%TD*%
D19*
%TO.P,D1,1,K*%
%TO.N,Net-(D1-K)*%
X95078000Y-49102500D03*
%TO.P,D1,2,A*%
%TO.N,+5V*%
X95078000Y-47527500D03*
%TD*%
D12*
%TO.P,J2,1,Pin_1*%
%TO.N,/en6*%
X60570000Y-50970000D03*
%TO.P,J2,2,Pin_2*%
%TO.N,/en5*%
X63110000Y-50970000D03*
%TO.P,J2,3,Pin_3*%
%TO.N,/en4*%
X65650000Y-50970000D03*
%TO.P,J2,4,Pin_4*%
%TO.N,/en3*%
X68190000Y-50970000D03*
%TO.P,J2,5,Pin_5*%
%TO.N,/en2*%
X70730000Y-50970000D03*
%TO.P,J2,6,Pin_6*%
%TO.N,/en1*%
X73270000Y-50970000D03*
D13*
%TO.P,J2,7,Pin_7*%
%TO.N,GND*%
X75810000Y-50970000D03*
D12*
%TO.P,J2,8,Pin_8*%
%TO.N,/sda*%
X78350000Y-50970000D03*
%TO.P,J2,9,Pin_9*%
%TO.N,/scl*%
X80890000Y-50970000D03*
%TO.P,J2,10,Pin_10*%
%TO.N,+5V*%
X83430000Y-50970000D03*
%TD*%
D20*
%TO.N,GND*%
X48565500Y-51983000D03*
X90118000Y-51669500D03*
X90629000Y-45898500D03*
X95078000Y-53724500D03*
X53197500Y-46811000D03*
%TD*%
D21*
%TO.N,+3.3V*%
X50153500Y-46801000D02*
X49167500Y-46801000D01*
D22*
X49893500Y-48078000D02*
X49987500Y-47984000D01*
X49893500Y-49378000D02*
X48968500Y-49378000D01*
X49987500Y-47984000D02*
X49987500Y-46967000D01*
X51057500Y-48728000D02*
X51943500Y-48728000D01*
X50407500Y-48078000D02*
X51057500Y-48728000D01*
X49893500Y-48078000D02*
X50407500Y-48078000D01*
D21*
X49167500Y-46801000D02*
X48554500Y-47414000D01*
D22*
X49987500Y-46967000D02*
X50153500Y-46801000D01*
X48968500Y-49378000D02*
X48554500Y-48964000D01*
D21*
X48554500Y-47414000D02*
X48554500Y-48964000D01*
D22*
%TO.N,GND*%
X49040500Y-50028000D02*
X48554500Y-50514000D01*
D21*
X92108000Y-45898500D02*
X92114000Y-45904500D01*
X95078000Y-52290000D02*
X95078000Y-53724500D01*
X91600000Y-51678500D02*
X90127000Y-51678500D01*
X48565500Y-51983000D02*
X48565500Y-50525000D01*
D23*
X92348000Y-46138500D02*
X92114000Y-45904500D01*
X92348000Y-47653000D02*
X92348000Y-46138500D01*
D22*
X49893500Y-48728000D02*
X50262500Y-48728000D01*
X50533500Y-49762000D02*
X50267500Y-50028000D01*
X51943500Y-47041000D02*
X51703500Y-46801000D01*
D21*
X90629000Y-45898500D02*
X92108000Y-45898500D01*
X53197500Y-46811000D02*
X51713500Y-46811000D01*
D22*
X50267500Y-50028000D02*
X49893500Y-50028000D01*
D21*
X90127000Y-51678500D02*
X90118000Y-51669500D01*
X48565500Y-50525000D02*
X48554500Y-50514000D01*
D22*
X50533500Y-48999000D02*
X50533500Y-49762000D01*
X51943500Y-48078000D02*
X51943500Y-47041000D01*
D21*
X51713500Y-46811000D02*
X51703500Y-46801000D01*
D22*
X49893500Y-50028000D02*
X49040500Y-50028000D01*
X50262500Y-48728000D02*
X50533500Y-48999000D01*
D23*
%TO.N,+5V*%
X93298000Y-48493500D02*
X93298000Y-47653000D01*
D21*
X95078000Y-47527500D02*
X95078000Y-46494500D01*
D23*
X93298000Y-47653000D02*
X93298000Y-46270500D01*
X91696000Y-48794500D02*
X92997000Y-48794500D01*
D21*
X94488000Y-45904500D02*
X93664000Y-45904500D01*
D23*
X93298000Y-46270500D02*
X93664000Y-45904500D01*
X91398000Y-47653000D02*
X91398000Y-48496500D01*
D21*
X92960000Y-44090000D02*
X93664000Y-44794000D01*
D23*
X92997000Y-48794500D02*
X93298000Y-48493500D01*
X91398000Y-48496500D02*
X91696000Y-48794500D01*
D21*
X93664000Y-44794000D02*
X93664000Y-45904500D01*
X95078000Y-46494500D02*
X94488000Y-45904500D01*
X83430000Y-44090000D02*
X92960000Y-44090000D01*
%TO.N,/3.3_exp*%
X89392000Y-53639000D02*
X89392000Y-56112000D01*
D23*
X93298000Y-49928000D02*
X93298000Y-51530500D01*
D21*
X87299000Y-56112000D02*
X89392000Y-56112000D01*
D23*
X93298000Y-51530500D02*
X93150000Y-51678500D01*
D21*
X91173000Y-56112000D02*
X93150000Y-54135000D01*
X87299000Y-49128000D02*
X87299000Y-51546000D01*
X93150000Y-54135000D02*
X93150000Y-51678500D01*
X87299000Y-51546000D02*
X89392000Y-53639000D01*
X89392000Y-56112000D02*
X91173000Y-56112000D01*
%TO.N,Net-(D1-K)*%
X95078000Y-49102500D02*
X95078000Y-50640000D01*
D24*
%TO.N,/scl*%
X57928000Y-52914000D02*
X80867000Y-52914000D01*
D21*
X87299000Y-54462000D02*
X81544000Y-54462000D01*
D24*
X55042000Y-50028000D02*
X57928000Y-52914000D01*
D21*
X80890000Y-53808000D02*
X80890000Y-50970000D01*
D24*
X80867000Y-52914000D02*
X80890000Y-52937000D01*
X51943500Y-50028000D02*
X55042000Y-50028000D01*
D21*
X81544000Y-54462000D02*
X80890000Y-53808000D01*
%TO.N,/sda*%
X79036000Y-47478000D02*
X87299000Y-47478000D01*
D24*
X51943500Y-49378000D02*
X78301000Y-49378000D01*
D21*
X79036000Y-47478000D02*
X78350000Y-48164000D01*
X78350000Y-48164000D02*
X78350000Y-49329000D01*
X78350000Y-49329000D02*
X78350000Y-50970000D01*
D24*
X78301000Y-49378000D02*
X78350000Y-49329000D01*
%TD*%
M02*
