%TF.GenerationSoftware,KiCad,Pcbnew,9.0.0*%
%TF.CreationDate,2025-05-29T23:41:57+02:00*%
%TF.ProjectId,hunity-gru-master,68756e69-7479-42d6-9772-752d6d617374,1.0*%
%TF.SameCoordinates,Original*%
%TF.FileFunction,Legend,Bot*%
%TF.FilePolarity,Positive*%
%FSLAX46Y46*%
G04 Gerber Fmt 4.6, Leading zero omitted, Abs format (unit mm)*
G04 Created by KiCad (PCBNEW 9.0.0) date 2025-05-29 23:41:57*
%MOMM*%
%LPD*%
G01*
G04 APERTURE LIST*
%ADD10C,0.400000*%
G04 APERTURE END LIST*
D10*
X57433804Y-54594703D02*
X53644968Y-54594703D01*
X53644968Y-53853870D01*
X57433804Y-53853870D01*
X57433804Y-54594703D01*
G36*
X57433804Y-54594703D02*
G01*
X53644968Y-54594703D01*
X53644968Y-53853870D01*
X57433804Y-53853870D01*
X57433804Y-54594703D01*
G37*
X87737421Y-54502979D02*
X87641992Y-54508841D01*
X87548884Y-54518460D01*
X87458143Y-54531785D01*
X87369815Y-54548771D01*
X87283947Y-54569369D01*
X87200585Y-54593532D01*
X87119776Y-54621211D01*
X87041566Y-54652358D01*
X86966002Y-54686927D01*
X86893131Y-54724869D01*
X86822998Y-54766136D01*
X86755651Y-54810681D01*
X86691135Y-54858456D01*
X86629498Y-54909412D01*
X86570786Y-54963503D01*
X86515045Y-55020680D01*
X86462322Y-55080895D01*
X86412664Y-55144102D01*
X86366116Y-55210251D01*
X86322726Y-55279296D01*
X86282540Y-55351188D01*
X86245604Y-55425879D01*
X86211965Y-55503322D01*
X86181670Y-55583470D01*
X86154764Y-55666273D01*
X86131295Y-55751685D01*
X86111310Y-55839657D01*
X86094853Y-55930142D01*
X86081973Y-56023092D01*
X86072715Y-56118459D01*
X86067126Y-56216196D01*
X86065253Y-56316254D01*
X86067249Y-56419557D01*
X86073206Y-56520408D01*
X86083072Y-56618752D01*
X86096796Y-56714536D01*
X86114329Y-56807705D01*
X86135621Y-56898205D01*
X86160620Y-56985982D01*
X86189276Y-57070981D01*
X86221540Y-57153148D01*
X86257360Y-57232429D01*
X86296687Y-57308769D01*
X86339469Y-57382115D01*
X86385657Y-57452412D01*
X86435200Y-57519605D01*
X86488047Y-57583642D01*
X86544149Y-57644466D01*
X86603455Y-57702025D01*
X86665914Y-57756263D01*
X86731477Y-57807127D01*
X86800092Y-57854562D01*
X86871710Y-57898514D01*
X86946280Y-57938929D01*
X87023751Y-57975752D01*
X87104074Y-58008930D01*
X87187197Y-58038407D01*
X87273071Y-58064131D01*
X87361645Y-58086045D01*
X87452869Y-58104097D01*
X87546692Y-58118232D01*
X87643064Y-58128395D01*
X87741934Y-58134533D01*
X87843253Y-58136591D01*
X87940626Y-58134637D01*
X88035605Y-58128810D01*
X88128152Y-58119168D01*
X88218231Y-58105764D01*
X88305804Y-58088656D01*
X88390832Y-58067897D01*
X88473280Y-58043545D01*
X88553108Y-58015654D01*
X88630281Y-57984280D01*
X88704760Y-57949478D01*
X88776508Y-57911305D01*
X88845487Y-57869816D01*
X88911660Y-57825065D01*
X88974990Y-57777109D01*
X89035439Y-57726004D01*
X89092969Y-57671805D01*
X89147544Y-57614567D01*
X89199125Y-57554346D01*
X89247675Y-57491197D01*
X89293157Y-57425177D01*
X89335533Y-57356340D01*
X89374766Y-57284742D01*
X89410819Y-57210439D01*
X89443653Y-57133487D01*
X89473232Y-57053940D01*
X89499517Y-56971855D01*
X89522472Y-56887287D01*
X89542059Y-56800291D01*
X89558240Y-56710924D01*
X89570979Y-56619240D01*
X89580237Y-56525295D01*
X89585977Y-56429145D01*
X90355033Y-56429151D01*
X90347647Y-56565212D01*
X90334808Y-56698175D01*
X90316603Y-56827959D01*
X90293118Y-56954486D01*
X90264439Y-57077674D01*
X90230653Y-57197444D01*
X90191847Y-57313716D01*
X90148107Y-57426409D01*
X90099520Y-57535443D01*
X90046172Y-57640739D01*
X89988150Y-57742215D01*
X89925540Y-57839793D01*
X89858429Y-57933391D01*
X89786904Y-58022931D01*
X89711051Y-58108331D01*
X89630956Y-58189512D01*
X89546707Y-58266393D01*
X89458390Y-58338895D01*
X89366090Y-58406937D01*
X89269896Y-58470439D01*
X89169893Y-58529321D01*
X89066168Y-58583504D01*
X88958808Y-58632906D01*
X88847899Y-58677448D01*
X88733527Y-58717050D01*
X88615780Y-58751631D01*
X88494744Y-58781112D01*
X88370504Y-58805413D01*
X88243149Y-58824453D01*
X88112765Y-58838152D01*
X87979437Y-58846430D01*
X87843253Y-58849207D01*
X87700040Y-58846467D01*
X87560171Y-58838279D01*
X87423726Y-58824697D01*
X87290784Y-58805772D01*
X87161422Y-58781554D01*
X87035721Y-58752097D01*
X86913758Y-58717452D01*
X86795613Y-58677669D01*
X86681364Y-58632802D01*
X86571091Y-58582902D01*
X86464871Y-58528020D01*
X86362784Y-58468208D01*
X86264909Y-58403518D01*
X86171325Y-58334001D01*
X86082109Y-58259709D01*
X85997342Y-58180694D01*
X85917102Y-58097008D01*
X85841467Y-58008701D01*
X85770516Y-57915827D01*
X85704329Y-57818436D01*
X85642984Y-57716580D01*
X85586560Y-57610310D01*
X85535136Y-57499680D01*
X85488790Y-57384739D01*
X85447601Y-57265540D01*
X85411649Y-57142135D01*
X85381011Y-57014575D01*
X85355768Y-56882911D01*
X85335996Y-56747197D01*
X85321776Y-56607482D01*
X85313187Y-56463819D01*
X85310306Y-56316260D01*
X85313163Y-56175650D01*
X85321673Y-56038294D01*
X85335741Y-55904264D01*
X85355271Y-55773630D01*
X85380172Y-55646464D01*
X85410347Y-55522836D01*
X85445702Y-55402818D01*
X85486144Y-55286480D01*
X85531578Y-55173894D01*
X85581909Y-55065131D01*
X85637044Y-54960261D01*
X85696888Y-54859357D01*
X85761346Y-54762488D01*
X85830325Y-54669726D01*
X85903730Y-54581143D01*
X85981467Y-54496808D01*
X86063441Y-54416794D01*
X86149559Y-54341171D01*
X86239725Y-54270010D01*
X86333846Y-54203382D01*
X86431827Y-54141359D01*
X86533574Y-54084011D01*
X86638993Y-54031410D01*
X86747988Y-53983626D01*
X86860467Y-53940731D01*
X86976335Y-53902795D01*
X87095497Y-53869890D01*
X87217859Y-53842087D01*
X87343326Y-53819457D01*
X87471805Y-53802070D01*
X87603202Y-53789999D01*
X87737421Y-53783313D01*
X87737421Y-54502979D01*
G36*
X87737421Y-54502979D02*
G01*
X87641992Y-54508841D01*
X87548884Y-54518460D01*
X87458143Y-54531785D01*
X87369815Y-54548771D01*
X87283947Y-54569369D01*
X87200585Y-54593532D01*
X87119776Y-54621211D01*
X87041566Y-54652358D01*
X86966002Y-54686927D01*
X86893131Y-54724869D01*
X86822998Y-54766136D01*
X86755651Y-54810681D01*
X86691135Y-54858456D01*
X86629498Y-54909412D01*
X86570786Y-54963503D01*
X86515045Y-55020680D01*
X86462322Y-55080895D01*
X86412664Y-55144102D01*
X86366116Y-55210251D01*
X86322726Y-55279296D01*
X86282540Y-55351188D01*
X86245604Y-55425879D01*
X86211965Y-55503322D01*
X86181670Y-55583470D01*
X86154764Y-55666273D01*
X86131295Y-55751685D01*
X86111310Y-55839657D01*
X86094853Y-55930142D01*
X86081973Y-56023092D01*
X86072715Y-56118459D01*
X86067126Y-56216196D01*
X86065253Y-56316254D01*
X86067249Y-56419557D01*
X86073206Y-56520408D01*
X86083072Y-56618752D01*
X86096796Y-56714536D01*
X86114329Y-56807705D01*
X86135621Y-56898205D01*
X86160620Y-56985982D01*
X86189276Y-57070981D01*
X86221540Y-57153148D01*
X86257360Y-57232429D01*
X86296687Y-57308769D01*
X86339469Y-57382115D01*
X86385657Y-57452412D01*
X86435200Y-57519605D01*
X86488047Y-57583642D01*
X86544149Y-57644466D01*
X86603455Y-57702025D01*
X86665914Y-57756263D01*
X86731477Y-57807127D01*
X86800092Y-57854562D01*
X86871710Y-57898514D01*
X86946280Y-57938929D01*
X87023751Y-57975752D01*
X87104074Y-58008930D01*
X87187197Y-58038407D01*
X87273071Y-58064131D01*
X87361645Y-58086045D01*
X87452869Y-58104097D01*
X87546692Y-58118232D01*
X87643064Y-58128395D01*
X87741934Y-58134533D01*
X87843253Y-58136591D01*
X87940626Y-58134637D01*
X88035605Y-58128810D01*
X88128152Y-58119168D01*
X88218231Y-58105764D01*
X88305804Y-58088656D01*
X88390832Y-58067897D01*
X88473280Y-58043545D01*
X88553108Y-58015654D01*
X88630281Y-57984280D01*
X88704760Y-57949478D01*
X88776508Y-57911305D01*
X88845487Y-57869816D01*
X88911660Y-57825065D01*
X88974990Y-57777109D01*
X89035439Y-57726004D01*
X89092969Y-57671805D01*
X89147544Y-57614567D01*
X89199125Y-57554346D01*
X89247675Y-57491197D01*
X89293157Y-57425177D01*
X89335533Y-57356340D01*
X89374766Y-57284742D01*
X89410819Y-57210439D01*
X89443653Y-57133487D01*
X89473232Y-57053940D01*
X89499517Y-56971855D01*
X89522472Y-56887287D01*
X89542059Y-56800291D01*
X89558240Y-56710924D01*
X89570979Y-56619240D01*
X89580237Y-56525295D01*
X89585977Y-56429145D01*
X90355033Y-56429151D01*
X90347647Y-56565212D01*
X90334808Y-56698175D01*
X90316603Y-56827959D01*
X90293118Y-56954486D01*
X90264439Y-57077674D01*
X90230653Y-57197444D01*
X90191847Y-57313716D01*
X90148107Y-57426409D01*
X90099520Y-57535443D01*
X90046172Y-57640739D01*
X89988150Y-57742215D01*
X89925540Y-57839793D01*
X89858429Y-57933391D01*
X89786904Y-58022931D01*
X89711051Y-58108331D01*
X89630956Y-58189512D01*
X89546707Y-58266393D01*
X89458390Y-58338895D01*
X89366090Y-58406937D01*
X89269896Y-58470439D01*
X89169893Y-58529321D01*
X89066168Y-58583504D01*
X88958808Y-58632906D01*
X88847899Y-58677448D01*
X88733527Y-58717050D01*
X88615780Y-58751631D01*
X88494744Y-58781112D01*
X88370504Y-58805413D01*
X88243149Y-58824453D01*
X88112765Y-58838152D01*
X87979437Y-58846430D01*
X87843253Y-58849207D01*
X87700040Y-58846467D01*
X87560171Y-58838279D01*
X87423726Y-58824697D01*
X87290784Y-58805772D01*
X87161422Y-58781554D01*
X87035721Y-58752097D01*
X86913758Y-58717452D01*
X86795613Y-58677669D01*
X86681364Y-58632802D01*
X86571091Y-58582902D01*
X86464871Y-58528020D01*
X86362784Y-58468208D01*
X86264909Y-58403518D01*
X86171325Y-58334001D01*
X86082109Y-58259709D01*
X85997342Y-58180694D01*
X85917102Y-58097008D01*
X85841467Y-58008701D01*
X85770516Y-57915827D01*
X85704329Y-57818436D01*
X85642984Y-57716580D01*
X85586560Y-57610310D01*
X85535136Y-57499680D01*
X85488790Y-57384739D01*
X85447601Y-57265540D01*
X85411649Y-57142135D01*
X85381011Y-57014575D01*
X85355768Y-56882911D01*
X85335996Y-56747197D01*
X85321776Y-56607482D01*
X85313187Y-56463819D01*
X85310306Y-56316260D01*
X85313163Y-56175650D01*
X85321673Y-56038294D01*
X85335741Y-55904264D01*
X85355271Y-55773630D01*
X85380172Y-55646464D01*
X85410347Y-55522836D01*
X85445702Y-55402818D01*
X85486144Y-55286480D01*
X85531578Y-55173894D01*
X85581909Y-55065131D01*
X85637044Y-54960261D01*
X85696888Y-54859357D01*
X85761346Y-54762488D01*
X85830325Y-54669726D01*
X85903730Y-54581143D01*
X85981467Y-54496808D01*
X86063441Y-54416794D01*
X86149559Y-54341171D01*
X86239725Y-54270010D01*
X86333846Y-54203382D01*
X86431827Y-54141359D01*
X86533574Y-54084011D01*
X86638993Y-54031410D01*
X86747988Y-53983626D01*
X86860467Y-53940731D01*
X86976335Y-53902795D01*
X87095497Y-53869890D01*
X87217859Y-53842087D01*
X87343326Y-53819457D01*
X87471805Y-53802070D01*
X87603202Y-53789999D01*
X87737421Y-53783313D01*
X87737421Y-54502979D01*
G37*
X64686917Y-54361872D02*
X64585569Y-54371718D01*
X64485668Y-54388055D01*
X64387834Y-54410923D01*
X64292687Y-54440365D01*
X64200847Y-54476421D01*
X64112935Y-54519134D01*
X64029570Y-54568543D01*
X63989787Y-54595772D01*
X63951373Y-54624691D01*
X63914406Y-54655305D01*
X63878964Y-54687620D01*
X63845124Y-54721639D01*
X63812963Y-54757369D01*
X63782559Y-54794815D01*
X63753990Y-54833981D01*
X63727332Y-54874874D01*
X63702665Y-54917498D01*
X63680064Y-54961858D01*
X63659608Y-55007959D01*
X63641374Y-55055807D01*
X63625440Y-55105408D01*
X63611883Y-55156765D01*
X63600780Y-55209884D01*
X63592210Y-55264771D01*
X63586249Y-55321430D01*
X62817197Y-55321424D01*
X62824663Y-55223356D01*
X62836414Y-55128889D01*
X62852350Y-55037985D01*
X62872374Y-54950606D01*
X62896387Y-54866716D01*
X62924291Y-54786277D01*
X62955989Y-54709250D01*
X62991381Y-54635600D01*
X63030370Y-54565288D01*
X63072858Y-54498277D01*
X63118746Y-54434529D01*
X63167936Y-54374007D01*
X63220330Y-54316674D01*
X63275829Y-54262491D01*
X63334337Y-54211422D01*
X63395753Y-54163430D01*
X63459981Y-54118475D01*
X63526922Y-54076522D01*
X63596478Y-54037533D01*
X63668550Y-54001469D01*
X63743041Y-53968295D01*
X63819852Y-53937971D01*
X63898885Y-53910462D01*
X63980042Y-53885729D01*
X64063224Y-53863734D01*
X64148335Y-53844441D01*
X64323945Y-53813809D01*
X64506087Y-53793533D01*
X64693976Y-53783313D01*
X64686917Y-54361872D01*
G36*
X64686917Y-54361872D02*
G01*
X64585569Y-54371718D01*
X64485668Y-54388055D01*
X64387834Y-54410923D01*
X64292687Y-54440365D01*
X64200847Y-54476421D01*
X64112935Y-54519134D01*
X64029570Y-54568543D01*
X63989787Y-54595772D01*
X63951373Y-54624691D01*
X63914406Y-54655305D01*
X63878964Y-54687620D01*
X63845124Y-54721639D01*
X63812963Y-54757369D01*
X63782559Y-54794815D01*
X63753990Y-54833981D01*
X63727332Y-54874874D01*
X63702665Y-54917498D01*
X63680064Y-54961858D01*
X63659608Y-55007959D01*
X63641374Y-55055807D01*
X63625440Y-55105408D01*
X63611883Y-55156765D01*
X63600780Y-55209884D01*
X63592210Y-55264771D01*
X63586249Y-55321430D01*
X62817197Y-55321424D01*
X62824663Y-55223356D01*
X62836414Y-55128889D01*
X62852350Y-55037985D01*
X62872374Y-54950606D01*
X62896387Y-54866716D01*
X62924291Y-54786277D01*
X62955989Y-54709250D01*
X62991381Y-54635600D01*
X63030370Y-54565288D01*
X63072858Y-54498277D01*
X63118746Y-54434529D01*
X63167936Y-54374007D01*
X63220330Y-54316674D01*
X63275829Y-54262491D01*
X63334337Y-54211422D01*
X63395753Y-54163430D01*
X63459981Y-54118475D01*
X63526922Y-54076522D01*
X63596478Y-54037533D01*
X63668550Y-54001469D01*
X63743041Y-53968295D01*
X63819852Y-53937971D01*
X63898885Y-53910462D01*
X63980042Y-53885729D01*
X64063224Y-53863734D01*
X64148335Y-53844441D01*
X64323945Y-53813809D01*
X64506087Y-53793533D01*
X64693976Y-53783313D01*
X64686917Y-54361872D01*
G37*
X81055808Y-57628596D02*
X83666364Y-53853870D01*
X84407196Y-53853870D01*
X81105197Y-58778650D01*
X80322031Y-58778650D01*
X80322031Y-53853870D01*
X81034641Y-53853870D01*
X81055808Y-57628596D01*
G36*
X81055808Y-57628596D02*
G01*
X83666364Y-53853870D01*
X84407196Y-53853870D01*
X81105197Y-58778650D01*
X80322031Y-58778650D01*
X80322031Y-53853870D01*
X81034641Y-53853870D01*
X81055808Y-57628596D01*
G37*
X55909805Y-58778650D02*
X55154859Y-58778650D01*
X55154859Y-55469593D01*
X55909805Y-55469593D01*
X55909805Y-58778650D01*
G36*
X55909805Y-58778650D02*
G01*
X55154859Y-58778650D01*
X55154859Y-55469593D01*
X55909805Y-55469593D01*
X55909805Y-58778650D01*
G37*
X68249977Y-57628596D02*
X70860532Y-53853870D01*
X71601364Y-53853870D01*
X68299365Y-58778650D01*
X67516199Y-58778650D01*
X67516199Y-53853870D01*
X68228809Y-53853870D01*
X68249977Y-57628596D01*
G36*
X68249977Y-57628596D02*
G01*
X70860532Y-53853870D01*
X71601364Y-53853870D01*
X68299365Y-58778650D01*
X67516199Y-58778650D01*
X67516199Y-53853870D01*
X68228809Y-53853870D01*
X68249977Y-57628596D01*
G37*
X84463645Y-58778650D02*
X83729865Y-58778650D01*
X83729865Y-56407978D01*
X84463645Y-55349646D01*
X84463645Y-58778650D01*
G36*
X84463645Y-58778650D02*
G01*
X83729865Y-58778650D01*
X83729865Y-56407978D01*
X84463645Y-55349646D01*
X84463645Y-58778650D01*
G37*
X79242529Y-54425367D02*
X78473474Y-54425367D01*
X78473474Y-53853864D01*
X79242529Y-53853864D01*
X79242529Y-54425367D01*
G36*
X79242529Y-54425367D02*
G01*
X78473474Y-54425367D01*
X78473474Y-53853864D01*
X79242529Y-53853864D01*
X79242529Y-54425367D01*
G37*
X62393863Y-58778650D02*
X61568363Y-58778650D01*
X60136087Y-54467701D01*
X60093753Y-54467701D01*
X58562695Y-58778650D01*
X57680750Y-58778650D01*
X59571640Y-53853870D01*
X60658197Y-53853870D01*
X62393863Y-58778650D01*
G36*
X62393863Y-58778650D02*
G01*
X61568363Y-58778650D01*
X60136087Y-54467701D01*
X60093753Y-54467701D01*
X58562695Y-58778650D01*
X57680750Y-58778650D01*
X59571640Y-53853870D01*
X60658197Y-53853870D01*
X62393863Y-58778650D01*
G37*
X71657813Y-58778650D02*
X70924036Y-58778650D01*
X70924036Y-56407978D01*
X71657813Y-55349646D01*
X71657813Y-58778650D01*
G36*
X71657813Y-58778650D02*
G01*
X70924036Y-58778650D01*
X70924036Y-56407978D01*
X71657813Y-55349646D01*
X71657813Y-58778650D01*
G37*
X79242529Y-58778650D02*
X78480530Y-58778650D01*
X78480530Y-55321424D01*
X79242529Y-55321424D01*
X79242529Y-58778650D01*
G36*
X79242529Y-58778650D02*
G01*
X78480530Y-58778650D01*
X78480530Y-55321424D01*
X79242529Y-55321424D01*
X79242529Y-58778650D01*
G37*
X66613773Y-55229147D02*
X66603981Y-55296336D01*
X66590860Y-55360788D01*
X66574504Y-55422583D01*
X66555007Y-55481799D01*
X66532461Y-55538516D01*
X66506958Y-55592811D01*
X66478593Y-55644764D01*
X66447458Y-55694454D01*
X66413646Y-55741959D01*
X66377250Y-55787359D01*
X66338364Y-55830731D01*
X66297080Y-55872155D01*
X66253490Y-55911710D01*
X66207690Y-55949474D01*
X66159770Y-55985527D01*
X66109825Y-56019946D01*
X66057947Y-56052811D01*
X66004229Y-56084201D01*
X65948765Y-56114194D01*
X65832968Y-56170307D01*
X65711301Y-56221778D01*
X65584507Y-56269239D01*
X65453332Y-56313321D01*
X65318518Y-56354653D01*
X65180811Y-56393866D01*
X65111427Y-56416742D01*
X65041133Y-56437964D01*
X64970343Y-56457863D01*
X64899471Y-56476770D01*
X64759131Y-56512931D01*
X64623422Y-56549091D01*
X64358837Y-56640814D01*
X64234483Y-56686012D01*
X64174290Y-56709024D01*
X64115421Y-56732532D01*
X64059402Y-56761082D01*
X64005275Y-56791265D01*
X63953276Y-56823225D01*
X63903645Y-56857108D01*
X63856617Y-56893057D01*
X63812432Y-56931219D01*
X63771327Y-56971736D01*
X63733540Y-57014755D01*
X63715964Y-57037248D01*
X63699308Y-57060420D01*
X63683599Y-57084289D01*
X63668868Y-57108875D01*
X63655146Y-57134194D01*
X63642460Y-57160265D01*
X63630842Y-57187106D01*
X63620320Y-57214735D01*
X63610925Y-57243170D01*
X63602686Y-57272430D01*
X63595634Y-57302532D01*
X63589797Y-57333494D01*
X63585205Y-57365335D01*
X63581888Y-57398072D01*
X63579877Y-57431724D01*
X63579199Y-57466309D01*
X63581337Y-57525086D01*
X63587616Y-57581070D01*
X63597838Y-57634324D01*
X63611804Y-57684907D01*
X63629315Y-57732880D01*
X63650172Y-57778305D01*
X63674176Y-57821241D01*
X63701129Y-57861750D01*
X63730830Y-57899892D01*
X63763082Y-57935728D01*
X63797685Y-57969319D01*
X63834440Y-58000725D01*
X63873149Y-58030007D01*
X63913612Y-58057226D01*
X63955631Y-58082443D01*
X63999006Y-58105718D01*
X64043539Y-58127112D01*
X64089030Y-58146686D01*
X64135281Y-58164500D01*
X64182093Y-58180615D01*
X64276602Y-58207991D01*
X64370967Y-58229301D01*
X64463595Y-58245030D01*
X64552896Y-58255663D01*
X64637277Y-58261687D01*
X64715146Y-58263587D01*
X64826984Y-58260252D01*
X64937148Y-58250137D01*
X65044955Y-58233077D01*
X65149724Y-58208906D01*
X65250772Y-58177459D01*
X65347417Y-58138570D01*
X65393876Y-58116284D01*
X65438978Y-58092075D01*
X65482638Y-58065923D01*
X65524771Y-58037807D01*
X65565292Y-58007707D01*
X65604115Y-57975602D01*
X65641155Y-57941472D01*
X65676328Y-57905295D01*
X65709546Y-57867050D01*
X65740727Y-57826719D01*
X65769783Y-57784278D01*
X65796630Y-57739709D01*
X65821183Y-57692990D01*
X65843356Y-57644101D01*
X65863064Y-57593020D01*
X65880222Y-57539728D01*
X65894745Y-57484204D01*
X65906546Y-57426426D01*
X65915542Y-57366375D01*
X65921646Y-57304029D01*
X66704811Y-57304035D01*
X66697781Y-57408410D01*
X66686027Y-57508586D01*
X66669660Y-57604619D01*
X66648794Y-57696569D01*
X66623540Y-57784493D01*
X66594011Y-57868450D01*
X66560320Y-57948497D01*
X66522579Y-58024693D01*
X66480900Y-58097097D01*
X66435395Y-58165765D01*
X66386178Y-58230756D01*
X66333360Y-58292129D01*
X66277054Y-58349941D01*
X66217372Y-58404251D01*
X66154427Y-58455117D01*
X66088331Y-58502597D01*
X66019196Y-58546749D01*
X65947135Y-58587630D01*
X65872260Y-58625301D01*
X65794684Y-58659817D01*
X65714519Y-58691238D01*
X65631878Y-58719622D01*
X65546872Y-58745027D01*
X65459614Y-58767511D01*
X65370217Y-58787132D01*
X65278793Y-58803948D01*
X65090314Y-58829399D01*
X64895075Y-58844328D01*
X64693976Y-58849201D01*
X64525234Y-58844368D01*
X64356068Y-58829716D01*
X64188038Y-58805018D01*
X64022706Y-58770046D01*
X63861633Y-58724575D01*
X63706378Y-58668375D01*
X63558502Y-58601219D01*
X63419566Y-58522881D01*
X63353938Y-58479447D01*
X63291131Y-58433133D01*
X63231339Y-58383909D01*
X63174757Y-58331747D01*
X63121581Y-58276619D01*
X63072005Y-58218496D01*
X63026225Y-58157350D01*
X62984436Y-58093153D01*
X62946832Y-58025876D01*
X62913610Y-57955490D01*
X62884963Y-57881968D01*
X62861087Y-57805280D01*
X62842178Y-57725399D01*
X62828430Y-57642295D01*
X62820038Y-57555942D01*
X62817197Y-57466309D01*
X62819184Y-57388491D01*
X62825074Y-57313733D01*
X62834760Y-57241951D01*
X62848134Y-57173062D01*
X62865089Y-57106985D01*
X62885518Y-57043637D01*
X62909314Y-56982934D01*
X62936369Y-56924795D01*
X62966577Y-56869136D01*
X62999830Y-56815875D01*
X63036020Y-56764929D01*
X63075041Y-56716215D01*
X63116786Y-56669651D01*
X63161146Y-56625155D01*
X63208016Y-56582642D01*
X63257287Y-56542031D01*
X63308852Y-56503240D01*
X63362605Y-56466184D01*
X63418438Y-56430783D01*
X63476243Y-56396952D01*
X63597344Y-56333673D01*
X63725048Y-56275685D01*
X63858499Y-56222328D01*
X63996839Y-56172940D01*
X64139210Y-56126859D01*
X64284754Y-56083423D01*
X64356467Y-56060244D01*
X64428510Y-56038223D01*
X64572267Y-55996991D01*
X64849198Y-55921143D01*
X65002008Y-55875708D01*
X65164162Y-55822254D01*
X65246288Y-55791666D01*
X65327804Y-55758050D01*
X65407729Y-55721065D01*
X65485080Y-55680370D01*
X65558876Y-55635623D01*
X65628135Y-55586484D01*
X65691874Y-55532612D01*
X65721368Y-55503794D01*
X65749113Y-55473665D01*
X65774988Y-55442182D01*
X65798869Y-55409302D01*
X65820634Y-55374983D01*
X65840160Y-55339183D01*
X65857325Y-55301858D01*
X65872005Y-55262966D01*
X65884079Y-55222464D01*
X65893422Y-55180310D01*
X66620145Y-55159143D01*
X66613773Y-55229147D01*
G36*
X66613773Y-55229147D02*
G01*
X66603981Y-55296336D01*
X66590860Y-55360788D01*
X66574504Y-55422583D01*
X66555007Y-55481799D01*
X66532461Y-55538516D01*
X66506958Y-55592811D01*
X66478593Y-55644764D01*
X66447458Y-55694454D01*
X66413646Y-55741959D01*
X66377250Y-55787359D01*
X66338364Y-55830731D01*
X66297080Y-55872155D01*
X66253490Y-55911710D01*
X66207690Y-55949474D01*
X66159770Y-55985527D01*
X66109825Y-56019946D01*
X66057947Y-56052811D01*
X66004229Y-56084201D01*
X65948765Y-56114194D01*
X65832968Y-56170307D01*
X65711301Y-56221778D01*
X65584507Y-56269239D01*
X65453332Y-56313321D01*
X65318518Y-56354653D01*
X65180811Y-56393866D01*
X65111427Y-56416742D01*
X65041133Y-56437964D01*
X64970343Y-56457863D01*
X64899471Y-56476770D01*
X64759131Y-56512931D01*
X64623422Y-56549091D01*
X64358837Y-56640814D01*
X64234483Y-56686012D01*
X64174290Y-56709024D01*
X64115421Y-56732532D01*
X64059402Y-56761082D01*
X64005275Y-56791265D01*
X63953276Y-56823225D01*
X63903645Y-56857108D01*
X63856617Y-56893057D01*
X63812432Y-56931219D01*
X63771327Y-56971736D01*
X63733540Y-57014755D01*
X63715964Y-57037248D01*
X63699308Y-57060420D01*
X63683599Y-57084289D01*
X63668868Y-57108875D01*
X63655146Y-57134194D01*
X63642460Y-57160265D01*
X63630842Y-57187106D01*
X63620320Y-57214735D01*
X63610925Y-57243170D01*
X63602686Y-57272430D01*
X63595634Y-57302532D01*
X63589797Y-57333494D01*
X63585205Y-57365335D01*
X63581888Y-57398072D01*
X63579877Y-57431724D01*
X63579199Y-57466309D01*
X63581337Y-57525086D01*
X63587616Y-57581070D01*
X63597838Y-57634324D01*
X63611804Y-57684907D01*
X63629315Y-57732880D01*
X63650172Y-57778305D01*
X63674176Y-57821241D01*
X63701129Y-57861750D01*
X63730830Y-57899892D01*
X63763082Y-57935728D01*
X63797685Y-57969319D01*
X63834440Y-58000725D01*
X63873149Y-58030007D01*
X63913612Y-58057226D01*
X63955631Y-58082443D01*
X63999006Y-58105718D01*
X64043539Y-58127112D01*
X64089030Y-58146686D01*
X64135281Y-58164500D01*
X64182093Y-58180615D01*
X64276602Y-58207991D01*
X64370967Y-58229301D01*
X64463595Y-58245030D01*
X64552896Y-58255663D01*
X64637277Y-58261687D01*
X64715146Y-58263587D01*
X64826984Y-58260252D01*
X64937148Y-58250137D01*
X65044955Y-58233077D01*
X65149724Y-58208906D01*
X65250772Y-58177459D01*
X65347417Y-58138570D01*
X65393876Y-58116284D01*
X65438978Y-58092075D01*
X65482638Y-58065923D01*
X65524771Y-58037807D01*
X65565292Y-58007707D01*
X65604115Y-57975602D01*
X65641155Y-57941472D01*
X65676328Y-57905295D01*
X65709546Y-57867050D01*
X65740727Y-57826719D01*
X65769783Y-57784278D01*
X65796630Y-57739709D01*
X65821183Y-57692990D01*
X65843356Y-57644101D01*
X65863064Y-57593020D01*
X65880222Y-57539728D01*
X65894745Y-57484204D01*
X65906546Y-57426426D01*
X65915542Y-57366375D01*
X65921646Y-57304029D01*
X66704811Y-57304035D01*
X66697781Y-57408410D01*
X66686027Y-57508586D01*
X66669660Y-57604619D01*
X66648794Y-57696569D01*
X66623540Y-57784493D01*
X66594011Y-57868450D01*
X66560320Y-57948497D01*
X66522579Y-58024693D01*
X66480900Y-58097097D01*
X66435395Y-58165765D01*
X66386178Y-58230756D01*
X66333360Y-58292129D01*
X66277054Y-58349941D01*
X66217372Y-58404251D01*
X66154427Y-58455117D01*
X66088331Y-58502597D01*
X66019196Y-58546749D01*
X65947135Y-58587630D01*
X65872260Y-58625301D01*
X65794684Y-58659817D01*
X65714519Y-58691238D01*
X65631878Y-58719622D01*
X65546872Y-58745027D01*
X65459614Y-58767511D01*
X65370217Y-58787132D01*
X65278793Y-58803948D01*
X65090314Y-58829399D01*
X64895075Y-58844328D01*
X64693976Y-58849201D01*
X64525234Y-58844368D01*
X64356068Y-58829716D01*
X64188038Y-58805018D01*
X64022706Y-58770046D01*
X63861633Y-58724575D01*
X63706378Y-58668375D01*
X63558502Y-58601219D01*
X63419566Y-58522881D01*
X63353938Y-58479447D01*
X63291131Y-58433133D01*
X63231339Y-58383909D01*
X63174757Y-58331747D01*
X63121581Y-58276619D01*
X63072005Y-58218496D01*
X63026225Y-58157350D01*
X62984436Y-58093153D01*
X62946832Y-58025876D01*
X62913610Y-57955490D01*
X62884963Y-57881968D01*
X62861087Y-57805280D01*
X62842178Y-57725399D01*
X62828430Y-57642295D01*
X62820038Y-57555942D01*
X62817197Y-57466309D01*
X62819184Y-57388491D01*
X62825074Y-57313733D01*
X62834760Y-57241951D01*
X62848134Y-57173062D01*
X62865089Y-57106985D01*
X62885518Y-57043637D01*
X62909314Y-56982934D01*
X62936369Y-56924795D01*
X62966577Y-56869136D01*
X62999830Y-56815875D01*
X63036020Y-56764929D01*
X63075041Y-56716215D01*
X63116786Y-56669651D01*
X63161146Y-56625155D01*
X63208016Y-56582642D01*
X63257287Y-56542031D01*
X63308852Y-56503240D01*
X63362605Y-56466184D01*
X63418438Y-56430783D01*
X63476243Y-56396952D01*
X63597344Y-56333673D01*
X63725048Y-56275685D01*
X63858499Y-56222328D01*
X63996839Y-56172940D01*
X64139210Y-56126859D01*
X64284754Y-56083423D01*
X64356467Y-56060244D01*
X64428510Y-56038223D01*
X64572267Y-55996991D01*
X64849198Y-55921143D01*
X65002008Y-55875708D01*
X65164162Y-55822254D01*
X65246288Y-55791666D01*
X65327804Y-55758050D01*
X65407729Y-55721065D01*
X65485080Y-55680370D01*
X65558876Y-55635623D01*
X65628135Y-55586484D01*
X65691874Y-55532612D01*
X65721368Y-55503794D01*
X65749113Y-55473665D01*
X65774988Y-55442182D01*
X65798869Y-55409302D01*
X65820634Y-55374983D01*
X65840160Y-55339183D01*
X65857325Y-55301858D01*
X65872005Y-55262966D01*
X65884079Y-55222464D01*
X65893422Y-55180310D01*
X66620145Y-55159143D01*
X66613773Y-55229147D01*
G37*
X74931592Y-54502979D02*
X74836164Y-54508841D01*
X74743056Y-54518460D01*
X74652314Y-54531785D01*
X74563986Y-54548771D01*
X74478118Y-54569369D01*
X74394756Y-54593532D01*
X74313947Y-54621211D01*
X74235737Y-54652358D01*
X74160173Y-54686927D01*
X74087302Y-54724869D01*
X74017169Y-54766136D01*
X73949822Y-54810681D01*
X73885306Y-54858456D01*
X73823669Y-54909412D01*
X73764957Y-54963503D01*
X73709216Y-55020680D01*
X73656493Y-55080895D01*
X73606835Y-55144102D01*
X73560287Y-55210251D01*
X73516897Y-55279296D01*
X73476711Y-55351188D01*
X73439775Y-55425879D01*
X73406136Y-55503322D01*
X73375841Y-55583470D01*
X73348935Y-55666273D01*
X73325467Y-55751685D01*
X73305481Y-55839657D01*
X73289024Y-55930142D01*
X73276144Y-56023092D01*
X73266886Y-56118459D01*
X73261297Y-56216196D01*
X73259424Y-56316254D01*
X73261421Y-56419557D01*
X73267377Y-56520408D01*
X73277243Y-56618752D01*
X73290967Y-56714536D01*
X73308501Y-56807705D01*
X73329792Y-56898205D01*
X73354791Y-56985982D01*
X73383448Y-57070981D01*
X73415711Y-57153148D01*
X73451532Y-57232429D01*
X73490858Y-57308769D01*
X73533640Y-57382115D01*
X73579828Y-57452412D01*
X73629371Y-57519605D01*
X73682219Y-57583642D01*
X73738321Y-57644466D01*
X73797627Y-57702025D01*
X73860086Y-57756263D01*
X73925649Y-57807127D01*
X73994264Y-57854562D01*
X74065882Y-57898514D01*
X74140452Y-57938929D01*
X74217923Y-57975752D01*
X74298246Y-58008930D01*
X74381370Y-58038407D01*
X74467244Y-58064131D01*
X74555818Y-58086045D01*
X74647042Y-58104097D01*
X74740865Y-58118232D01*
X74837237Y-58128395D01*
X74936108Y-58134533D01*
X75037427Y-58136591D01*
X75134800Y-58134637D01*
X75229779Y-58128810D01*
X75322326Y-58119168D01*
X75412405Y-58105764D01*
X75499978Y-58088656D01*
X75585006Y-58067897D01*
X75667454Y-58043545D01*
X75747283Y-58015654D01*
X75824455Y-57984280D01*
X75898934Y-57949478D01*
X75970682Y-57911305D01*
X76039661Y-57869816D01*
X76105834Y-57825065D01*
X76169164Y-57777109D01*
X76229613Y-57726004D01*
X76287143Y-57671805D01*
X76341718Y-57614567D01*
X76393299Y-57554346D01*
X76441849Y-57491197D01*
X76487331Y-57425177D01*
X76529707Y-57356340D01*
X76568940Y-57284742D01*
X76604992Y-57210439D01*
X76637826Y-57133487D01*
X76667404Y-57053940D01*
X76693690Y-56971855D01*
X76716644Y-56887287D01*
X76736231Y-56800291D01*
X76752412Y-56710924D01*
X76765151Y-56619240D01*
X76774409Y-56525295D01*
X76780148Y-56429145D01*
X77549201Y-56429151D01*
X77541815Y-56565212D01*
X77528977Y-56698175D01*
X77510771Y-56827959D01*
X77487286Y-56954486D01*
X77458607Y-57077674D01*
X77424821Y-57197444D01*
X77386015Y-57313716D01*
X77342275Y-57426409D01*
X77293688Y-57535443D01*
X77240340Y-57640739D01*
X77182318Y-57742215D01*
X77119708Y-57839793D01*
X77052598Y-57933391D01*
X76981072Y-58022931D01*
X76905219Y-58108331D01*
X76825125Y-58189512D01*
X76740876Y-58266393D01*
X76652558Y-58338895D01*
X76560259Y-58406937D01*
X76464065Y-58470439D01*
X76364062Y-58529321D01*
X76260337Y-58583504D01*
X76152977Y-58632906D01*
X76042068Y-58677448D01*
X75927697Y-58717050D01*
X75809950Y-58751631D01*
X75688914Y-58781112D01*
X75564675Y-58805413D01*
X75437320Y-58824453D01*
X75306935Y-58838152D01*
X75173608Y-58846430D01*
X75037424Y-58849207D01*
X74894210Y-58846467D01*
X74754342Y-58838279D01*
X74617897Y-58824697D01*
X74484954Y-58805772D01*
X74355592Y-58781554D01*
X74229891Y-58752097D01*
X74107928Y-58717452D01*
X73989783Y-58677669D01*
X73875534Y-58632802D01*
X73765260Y-58582902D01*
X73659041Y-58528020D01*
X73556954Y-58468208D01*
X73459079Y-58403518D01*
X73365495Y-58334001D01*
X73276279Y-58259709D01*
X73191512Y-58180694D01*
X73111272Y-58097008D01*
X73035637Y-58008701D01*
X72964687Y-57915827D01*
X72898500Y-57818436D01*
X72837155Y-57716580D01*
X72780731Y-57610310D01*
X72729306Y-57499680D01*
X72682961Y-57384739D01*
X72641772Y-57265540D01*
X72605820Y-57142135D01*
X72575182Y-57014575D01*
X72549939Y-56882911D01*
X72530167Y-56747197D01*
X72515948Y-56607482D01*
X72507358Y-56463819D01*
X72504477Y-56316260D01*
X72507335Y-56175650D01*
X72515844Y-56038294D01*
X72529912Y-55904264D01*
X72549443Y-55773630D01*
X72574343Y-55646464D01*
X72604518Y-55522836D01*
X72639873Y-55402818D01*
X72680315Y-55286480D01*
X72725749Y-55173894D01*
X72776081Y-55065131D01*
X72831215Y-54960261D01*
X72891059Y-54859357D01*
X72955518Y-54762488D01*
X73024497Y-54669726D01*
X73097902Y-54581143D01*
X73175638Y-54496808D01*
X73257613Y-54416794D01*
X73343730Y-54341171D01*
X73433896Y-54270010D01*
X73528017Y-54203382D01*
X73625998Y-54141359D01*
X73727745Y-54084011D01*
X73833164Y-54031410D01*
X73942160Y-53983626D01*
X74054638Y-53940731D01*
X74170506Y-53902795D01*
X74289668Y-53869890D01*
X74412030Y-53842087D01*
X74537497Y-53819457D01*
X74665977Y-53802070D01*
X74797373Y-53789999D01*
X74931592Y-53783313D01*
X74931592Y-54502979D01*
G36*
X74931592Y-54502979D02*
G01*
X74836164Y-54508841D01*
X74743056Y-54518460D01*
X74652314Y-54531785D01*
X74563986Y-54548771D01*
X74478118Y-54569369D01*
X74394756Y-54593532D01*
X74313947Y-54621211D01*
X74235737Y-54652358D01*
X74160173Y-54686927D01*
X74087302Y-54724869D01*
X74017169Y-54766136D01*
X73949822Y-54810681D01*
X73885306Y-54858456D01*
X73823669Y-54909412D01*
X73764957Y-54963503D01*
X73709216Y-55020680D01*
X73656493Y-55080895D01*
X73606835Y-55144102D01*
X73560287Y-55210251D01*
X73516897Y-55279296D01*
X73476711Y-55351188D01*
X73439775Y-55425879D01*
X73406136Y-55503322D01*
X73375841Y-55583470D01*
X73348935Y-55666273D01*
X73325467Y-55751685D01*
X73305481Y-55839657D01*
X73289024Y-55930142D01*
X73276144Y-56023092D01*
X73266886Y-56118459D01*
X73261297Y-56216196D01*
X73259424Y-56316254D01*
X73261421Y-56419557D01*
X73267377Y-56520408D01*
X73277243Y-56618752D01*
X73290967Y-56714536D01*
X73308501Y-56807705D01*
X73329792Y-56898205D01*
X73354791Y-56985982D01*
X73383448Y-57070981D01*
X73415711Y-57153148D01*
X73451532Y-57232429D01*
X73490858Y-57308769D01*
X73533640Y-57382115D01*
X73579828Y-57452412D01*
X73629371Y-57519605D01*
X73682219Y-57583642D01*
X73738321Y-57644466D01*
X73797627Y-57702025D01*
X73860086Y-57756263D01*
X73925649Y-57807127D01*
X73994264Y-57854562D01*
X74065882Y-57898514D01*
X74140452Y-57938929D01*
X74217923Y-57975752D01*
X74298246Y-58008930D01*
X74381370Y-58038407D01*
X74467244Y-58064131D01*
X74555818Y-58086045D01*
X74647042Y-58104097D01*
X74740865Y-58118232D01*
X74837237Y-58128395D01*
X74936108Y-58134533D01*
X75037427Y-58136591D01*
X75134800Y-58134637D01*
X75229779Y-58128810D01*
X75322326Y-58119168D01*
X75412405Y-58105764D01*
X75499978Y-58088656D01*
X75585006Y-58067897D01*
X75667454Y-58043545D01*
X75747283Y-58015654D01*
X75824455Y-57984280D01*
X75898934Y-57949478D01*
X75970682Y-57911305D01*
X76039661Y-57869816D01*
X76105834Y-57825065D01*
X76169164Y-57777109D01*
X76229613Y-57726004D01*
X76287143Y-57671805D01*
X76341718Y-57614567D01*
X76393299Y-57554346D01*
X76441849Y-57491197D01*
X76487331Y-57425177D01*
X76529707Y-57356340D01*
X76568940Y-57284742D01*
X76604992Y-57210439D01*
X76637826Y-57133487D01*
X76667404Y-57053940D01*
X76693690Y-56971855D01*
X76716644Y-56887287D01*
X76736231Y-56800291D01*
X76752412Y-56710924D01*
X76765151Y-56619240D01*
X76774409Y-56525295D01*
X76780148Y-56429145D01*
X77549201Y-56429151D01*
X77541815Y-56565212D01*
X77528977Y-56698175D01*
X77510771Y-56827959D01*
X77487286Y-56954486D01*
X77458607Y-57077674D01*
X77424821Y-57197444D01*
X77386015Y-57313716D01*
X77342275Y-57426409D01*
X77293688Y-57535443D01*
X77240340Y-57640739D01*
X77182318Y-57742215D01*
X77119708Y-57839793D01*
X77052598Y-57933391D01*
X76981072Y-58022931D01*
X76905219Y-58108331D01*
X76825125Y-58189512D01*
X76740876Y-58266393D01*
X76652558Y-58338895D01*
X76560259Y-58406937D01*
X76464065Y-58470439D01*
X76364062Y-58529321D01*
X76260337Y-58583504D01*
X76152977Y-58632906D01*
X76042068Y-58677448D01*
X75927697Y-58717050D01*
X75809950Y-58751631D01*
X75688914Y-58781112D01*
X75564675Y-58805413D01*
X75437320Y-58824453D01*
X75306935Y-58838152D01*
X75173608Y-58846430D01*
X75037424Y-58849207D01*
X74894210Y-58846467D01*
X74754342Y-58838279D01*
X74617897Y-58824697D01*
X74484954Y-58805772D01*
X74355592Y-58781554D01*
X74229891Y-58752097D01*
X74107928Y-58717452D01*
X73989783Y-58677669D01*
X73875534Y-58632802D01*
X73765260Y-58582902D01*
X73659041Y-58528020D01*
X73556954Y-58468208D01*
X73459079Y-58403518D01*
X73365495Y-58334001D01*
X73276279Y-58259709D01*
X73191512Y-58180694D01*
X73111272Y-58097008D01*
X73035637Y-58008701D01*
X72964687Y-57915827D01*
X72898500Y-57818436D01*
X72837155Y-57716580D01*
X72780731Y-57610310D01*
X72729306Y-57499680D01*
X72682961Y-57384739D01*
X72641772Y-57265540D01*
X72605820Y-57142135D01*
X72575182Y-57014575D01*
X72549939Y-56882911D01*
X72530167Y-56747197D01*
X72515948Y-56607482D01*
X72507358Y-56463819D01*
X72504477Y-56316260D01*
X72507335Y-56175650D01*
X72515844Y-56038294D01*
X72529912Y-55904264D01*
X72549443Y-55773630D01*
X72574343Y-55646464D01*
X72604518Y-55522836D01*
X72639873Y-55402818D01*
X72680315Y-55286480D01*
X72725749Y-55173894D01*
X72776081Y-55065131D01*
X72831215Y-54960261D01*
X72891059Y-54859357D01*
X72955518Y-54762488D01*
X73024497Y-54669726D01*
X73097902Y-54581143D01*
X73175638Y-54496808D01*
X73257613Y-54416794D01*
X73343730Y-54341171D01*
X73433896Y-54270010D01*
X73528017Y-54203382D01*
X73625998Y-54141359D01*
X73727745Y-54084011D01*
X73833164Y-54031410D01*
X73942160Y-53983626D01*
X74054638Y-53940731D01*
X74170506Y-53902795D01*
X74289668Y-53869890D01*
X74412030Y-53842087D01*
X74537497Y-53819457D01*
X74665977Y-53802070D01*
X74797373Y-53789999D01*
X74931592Y-53783313D01*
X74931592Y-54502979D01*
G37*
M02*
