%TF.GenerationSoftware,KiCad,Pcbnew,9.0.0*%
%TF.CreationDate,2025-05-29T23:41:57+02:00*%
%TF.ProjectId,hunity-gru-master,68756e69-7479-42d6-9772-752d6d617374,1.0*%
%TF.SameCoordinates,Original*%
%TF.FileFunction,Soldermask,Top*%
%TF.FilePolarity,Negative*%
%FSLAX46Y46*%
G04 Gerber Fmt 4.6, Leading zero omitted, Abs format (unit mm)*
G04 Created by KiCad (PCBNEW 9.0.0) date 2025-05-29 23:41:57*
%MOMM*%
%LPD*%
G01*
G04 APERTURE LIST*
G04 Aperture macros list*
%AMRoundRect*
0 Rectangle with rounded corners*
0 $1 Rounding radius*
0 $2 $3 $4 $5 $6 $7 $8 $9 X,Y pos of 4 corners*
0 Add a 4 corners polygon primitive as box body*
4,1,4,$2,$3,$4,$5,$6,$7,$8,$9,$2,$3,0*
0 Add four circle primitives for the rounded corners*
1,1,$1+$1,$2,$3*
1,1,$1+$1,$4,$5*
1,1,$1+$1,$6,$7*
1,1,$1+$1,$8,$9*
0 Add four rect primitives between the rounded corners*
20,1,$1+$1,$2,$3,$4,$5,0*
20,1,$1+$1,$4,$5,$6,$7,0*
20,1,$1+$1,$6,$7,$8,$9,0*
20,1,$1+$1,$8,$9,$2,$3,0*%
G04 Aperture macros list end*
%ADD10RoundRect,0.200000X0.275000X-0.200000X0.275000X0.200000X-0.275000X0.200000X-0.275000X-0.200000X0*%
%ADD11RoundRect,0.225000X0.225000X0.250000X-0.225000X0.250000X-0.225000X-0.250000X0.225000X-0.250000X0*%
%ADD12C,1.700000*%
%ADD13R,1.700000X1.700000*%
%ADD14RoundRect,0.200000X-0.275000X0.200000X-0.275000X-0.200000X0.275000X-0.200000X0.275000X0.200000X0*%
%ADD15RoundRect,0.225000X-0.225000X-0.250000X0.225000X-0.250000X0.225000X0.250000X-0.225000X0.250000X0*%
%ADD16RoundRect,0.225000X0.250000X-0.225000X0.250000X0.225000X-0.250000X0.225000X-0.250000X-0.225000X0*%
%ADD17RoundRect,0.150000X-0.150000X0.512500X-0.150000X-0.512500X0.150000X-0.512500X0.150000X0.512500X0*%
%ADD18R,0.500000X0.350000*%
%ADD19RoundRect,0.218750X0.256250X-0.218750X0.256250X0.218750X-0.256250X0.218750X-0.256250X-0.218750X0*%
G04 APERTURE END LIST*
D10*
%TO.C,R1*%
X87299000Y-49128000D03*
X87299000Y-47478000D03*
%TD*%
D11*
%TO.C,C4*%
X93150000Y-51678500D03*
X91600000Y-51678500D03*
%TD*%
D12*
%TO.C,J1*%
X60570000Y-44090000D03*
X63110000Y-44090000D03*
X65650000Y-44090000D03*
X68190000Y-44090000D03*
X70730000Y-44090000D03*
X73270000Y-44090000D03*
D13*
X75810000Y-44090000D03*
D12*
X78350000Y-44090000D03*
X80890000Y-44090000D03*
X83430000Y-44090000D03*
%TD*%
D14*
%TO.C,R3*%
X95078000Y-50640000D03*
X95078000Y-52290000D03*
%TD*%
D15*
%TO.C,C2*%
X50153500Y-46801000D03*
X51703500Y-46801000D03*
%TD*%
D16*
%TO.C,C1*%
X48554500Y-50514000D03*
X48554500Y-48964000D03*
%TD*%
D11*
%TO.C,C3*%
X93664000Y-45904500D03*
X92114000Y-45904500D03*
%TD*%
D14*
%TO.C,R2*%
X87299000Y-54462000D03*
X87299000Y-56112000D03*
%TD*%
D17*
%TO.C,U2*%
X93298000Y-47653000D03*
X92348000Y-47653000D03*
X91398000Y-47653000D03*
X91398000Y-49928000D03*
X93298000Y-49928000D03*
%TD*%
D18*
%TO.C,U1*%
X51943500Y-48078000D03*
X51943500Y-48728000D03*
X51943500Y-49378000D03*
X51943500Y-50028000D03*
X49893500Y-50028000D03*
X49893500Y-49378000D03*
X49893500Y-48728000D03*
X49893500Y-48078000D03*
%TD*%
D19*
%TO.C,D1*%
X95078000Y-49102500D03*
X95078000Y-47527500D03*
%TD*%
D12*
%TO.C,J2*%
X60570000Y-50970000D03*
X63110000Y-50970000D03*
X65650000Y-50970000D03*
X68190000Y-50970000D03*
X70730000Y-50970000D03*
X73270000Y-50970000D03*
D13*
X75810000Y-50970000D03*
D12*
X78350000Y-50970000D03*
X80890000Y-50970000D03*
X83430000Y-50970000D03*
%TD*%
M02*
