%TF.GenerationSoftware,KiCad,Pcbnew,9.0.0*%
%TF.CreationDate,2025-05-29T23:41:57+02:00*%
%TF.ProjectId,hunity-gru-master,68756e69-7479-42d6-9772-752d6d617374,1.0*%
%TF.SameCoordinates,Original*%
%TF.FileFunction,Copper,L2,Bot*%
%TF.FilePolarity,Positive*%
%FSLAX46Y46*%
G04 Gerber Fmt 4.6, Leading zero omitted, Abs format (unit mm)*
G04 Created by KiCad (PCBNEW 9.0.0) date 2025-05-29 23:41:57*
%MOMM*%
%LPD*%
G01*
G04 APERTURE LIST*
%TA.AperFunction,ComponentPad*%
%ADD10C,1.700000*%
%TD*%
%TA.AperFunction,ComponentPad*%
%ADD11R,1.700000X1.700000*%
%TD*%
%TA.AperFunction,ViaPad*%
%ADD12C,1.400000*%
%TD*%
%TA.AperFunction,Conductor*%
%ADD13C,1.500000*%
%TD*%
G04 APERTURE END LIST*
D10*
%TO.P,J1,1,Pin_1*%
%TO.N,/en6*%
X60570000Y-44090000D03*
%TO.P,J1,2,Pin_2*%
%TO.N,/en5*%
X63110000Y-44090000D03*
%TO.P,J1,3,Pin_3*%
%TO.N,/en4*%
X65650000Y-44090000D03*
%TO.P,J1,4,Pin_4*%
%TO.N,/en3*%
X68190000Y-44090000D03*
%TO.P,J1,5,Pin_5*%
%TO.N,/en2*%
X70730000Y-44090000D03*
%TO.P,J1,6,Pin_6*%
%TO.N,/en1*%
X73270000Y-44090000D03*
D11*
%TO.P,J1,7,Pin_7*%
%TO.N,GND*%
X75810000Y-44090000D03*
D10*
%TO.P,J1,8,Pin_8*%
%TO.N,/sda*%
X78350000Y-44090000D03*
%TO.P,J1,9,Pin_9*%
%TO.N,/scl*%
X80890000Y-44090000D03*
%TO.P,J1,10,Pin_10*%
%TO.N,+5V*%
X83430000Y-44090000D03*
%TD*%
%TO.P,J2,1,Pin_1*%
%TO.N,/en6*%
X60570000Y-50970000D03*
%TO.P,J2,2,Pin_2*%
%TO.N,/en5*%
X63110000Y-50970000D03*
%TO.P,J2,3,Pin_3*%
%TO.N,/en4*%
X65650000Y-50970000D03*
%TO.P,J2,4,Pin_4*%
%TO.N,/en3*%
X68190000Y-50970000D03*
%TO.P,J2,5,Pin_5*%
%TO.N,/en2*%
X70730000Y-50970000D03*
%TO.P,J2,6,Pin_6*%
%TO.N,/en1*%
X73270000Y-50970000D03*
D11*
%TO.P,J2,7,Pin_7*%
%TO.N,GND*%
X75810000Y-50970000D03*
D10*
%TO.P,J2,8,Pin_8*%
%TO.N,/sda*%
X78350000Y-50970000D03*
%TO.P,J2,9,Pin_9*%
%TO.N,/scl*%
X80890000Y-50970000D03*
%TO.P,J2,10,Pin_10*%
%TO.N,+5V*%
X83430000Y-50970000D03*
%TD*%
D12*
%TO.N,GND*%
X48565500Y-51983000D03*
X90118000Y-51669500D03*
X90629000Y-45898500D03*
X95078000Y-53724500D03*
X53197500Y-46811000D03*
%TD*%
D13*
%TO.N,+5V*%
X83430000Y-50970000D02*
X83430000Y-44090000D01*
%TO.N,/scl*%
X80890000Y-50970000D02*
X80890000Y-44090000D01*
%TO.N,/sda*%
X78350000Y-44090000D02*
X78350000Y-50970000D01*
%TO.N,/en3*%
X68190000Y-50970000D02*
X68190000Y-44090000D01*
%TO.N,/en2*%
X70730000Y-50970000D02*
X70730000Y-44090000D01*
%TO.N,/en5*%
X63110000Y-50970000D02*
X63110000Y-44090000D01*
%TO.N,/en1*%
X73270000Y-50970000D02*
X73270000Y-44090000D01*
%TO.N,/en4*%
X65650000Y-50970000D02*
X65650000Y-44090000D01*
%TO.N,/en6*%
X60570000Y-50970000D02*
X60570000Y-44090000D01*
%TD*%
%TA.AperFunction,Conductor*%
%TO.N,GND*%
G36*
X76060000Y-45440000D02*
G01*
X76707828Y-45440000D01*
X76707844Y-45439999D01*
X76767372Y-45433598D01*
X76767379Y-45433596D01*
X76902086Y-45383354D01*
X76909872Y-45379103D01*
X76910637Y-45380504D01*
X76966645Y-45359610D01*
X77034919Y-45374456D01*
X77084328Y-45423858D01*
X77099500Y-45483293D01*
X77099500Y-49576706D01*
X77079815Y-49643745D01*
X77027011Y-49689500D01*
X76957853Y-49699444D01*
X76910462Y-49679814D01*
X76909872Y-49680897D01*
X76902086Y-49676645D01*
X76767379Y-49626403D01*
X76767372Y-49626401D01*
X76707844Y-49620000D01*
X76060000Y-49620000D01*
X76060000Y-50536988D01*
X76002993Y-50504075D01*
X75875826Y-50470000D01*
X75744174Y-50470000D01*
X75617007Y-50504075D01*
X75560000Y-50536988D01*
X75560000Y-49620000D01*
X74912155Y-49620000D01*
X74852627Y-49626401D01*
X74852620Y-49626403D01*
X74717913Y-49676645D01*
X74710128Y-49680897D01*
X74709363Y-49679497D01*
X74653343Y-49700390D01*
X74585070Y-49685537D01*
X74535666Y-49636130D01*
X74520500Y-49576706D01*
X74520500Y-45483293D01*
X74540185Y-45416254D01*
X74592989Y-45370499D01*
X74662147Y-45360555D01*
X74709536Y-45380186D01*
X74710128Y-45379103D01*
X74717913Y-45383354D01*
X74852620Y-45433596D01*
X74852627Y-45433598D01*
X74912155Y-45439999D01*
X74912172Y-45440000D01*
X75560000Y-45440000D01*
X75560000Y-44523012D01*
X75617007Y-44555925D01*
X75744174Y-44590000D01*
X75875826Y-44590000D01*
X76002993Y-44555925D01*
X76060000Y-44523012D01*
X76060000Y-45440000D01*
G37*
%TD.AperFunction*%
%TA.AperFunction,Conductor*%
G36*
X99442539Y-40520185D02*
G01*
X99488294Y-40572989D01*
X99499500Y-40624500D01*
X99499500Y-60375500D01*
X99479815Y-60442539D01*
X99427011Y-60488294D01*
X99375500Y-60499500D01*
X44624500Y-60499500D01*
X44557461Y-60479815D01*
X44511706Y-60427011D01*
X44500500Y-60375500D01*
X44500500Y-43983713D01*
X59219500Y-43983713D01*
X59219500Y-44196286D01*
X59252753Y-44406240D01*
X59313431Y-44592988D01*
X59319500Y-44631306D01*
X59319500Y-50428696D01*
X59313431Y-50467014D01*
X59252753Y-50653760D01*
X59219500Y-50863713D01*
X59219500Y-51076286D01*
X59252753Y-51286239D01*
X59318444Y-51488414D01*
X59414951Y-51677820D01*
X59539890Y-51849786D01*
X59690213Y-52000109D01*
X59862179Y-52125048D01*
X59862181Y-52125049D01*
X59862184Y-52125051D01*
X60051588Y-52221557D01*
X60253757Y-52287246D01*
X60463713Y-52320500D01*
X60463714Y-52320500D01*
X60676286Y-52320500D01*
X60676287Y-52320500D01*
X60886243Y-52287246D01*
X61088412Y-52221557D01*
X61277816Y-52125051D01*
X61364478Y-52062088D01*
X61449786Y-52000109D01*
X61449788Y-52000106D01*
X61449792Y-52000104D01*
X61600104Y-51849792D01*
X61600106Y-51849788D01*
X61600109Y-51849786D01*
X61725048Y-51677820D01*
X61725047Y-51677820D01*
X61725051Y-51677816D01*
X61729514Y-51669054D01*
X61777488Y-51618259D01*
X61845308Y-51601463D01*
X61911444Y-51623999D01*
X61950486Y-51669056D01*
X61954951Y-51677820D01*
X62079890Y-51849786D01*
X62230213Y-52000109D01*
X62402179Y-52125048D01*
X62402181Y-52125049D01*
X62402184Y-52125051D01*
X62591588Y-52221557D01*
X62793757Y-52287246D01*
X63003713Y-52320500D01*
X63003714Y-52320500D01*
X63216286Y-52320500D01*
X63216287Y-52320500D01*
X63426243Y-52287246D01*
X63628412Y-52221557D01*
X63817816Y-52125051D01*
X63904478Y-52062088D01*
X63989786Y-52000109D01*
X63989788Y-52000106D01*
X63989792Y-52000104D01*
X64140104Y-51849792D01*
X64140106Y-51849788D01*
X64140109Y-51849786D01*
X64265048Y-51677820D01*
X64265047Y-51677820D01*
X64265051Y-51677816D01*
X64269514Y-51669054D01*
X64317488Y-51618259D01*
X64385308Y-51601463D01*
X64451444Y-51623999D01*
X64490486Y-51669056D01*
X64494951Y-51677820D01*
X64619890Y-51849786D01*
X64770213Y-52000109D01*
X64942179Y-52125048D01*
X64942181Y-52125049D01*
X64942184Y-52125051D01*
X65131588Y-52221557D01*
X65333757Y-52287246D01*
X65543713Y-52320500D01*
X65543714Y-52320500D01*
X65756286Y-52320500D01*
X65756287Y-52320500D01*
X65966243Y-52287246D01*
X66168412Y-52221557D01*
X66357816Y-52125051D01*
X66444478Y-52062088D01*
X66529786Y-52000109D01*
X66529788Y-52000106D01*
X66529792Y-52000104D01*
X66680104Y-51849792D01*
X66680106Y-51849788D01*
X66680109Y-51849786D01*
X66805048Y-51677820D01*
X66805047Y-51677820D01*
X66805051Y-51677816D01*
X66809514Y-51669054D01*
X66857488Y-51618259D01*
X66925308Y-51601463D01*
X66991444Y-51623999D01*
X67030486Y-51669056D01*
X67034951Y-51677820D01*
X67159890Y-51849786D01*
X67310213Y-52000109D01*
X67482179Y-52125048D01*
X67482181Y-52125049D01*
X67482184Y-52125051D01*
X67671588Y-52221557D01*
X67873757Y-52287246D01*
X68083713Y-52320500D01*
X68083714Y-52320500D01*
X68296286Y-52320500D01*
X68296287Y-52320500D01*
X68506243Y-52287246D01*
X68708412Y-52221557D01*
X68897816Y-52125051D01*
X68984478Y-52062088D01*
X69069786Y-52000109D01*
X69069788Y-52000106D01*
X69069792Y-52000104D01*
X69220104Y-51849792D01*
X69220106Y-51849788D01*
X69220109Y-51849786D01*
X69345048Y-51677820D01*
X69345047Y-51677820D01*
X69345051Y-51677816D01*
X69349514Y-51669054D01*
X69397488Y-51618259D01*
X69465308Y-51601463D01*
X69531444Y-51623999D01*
X69570486Y-51669056D01*
X69574951Y-51677820D01*
X69699890Y-51849786D01*
X69850213Y-52000109D01*
X70022179Y-52125048D01*
X70022181Y-52125049D01*
X70022184Y-52125051D01*
X70211588Y-52221557D01*
X70413757Y-52287246D01*
X70623713Y-52320500D01*
X70623714Y-52320500D01*
X70836286Y-52320500D01*
X70836287Y-52320500D01*
X71046243Y-52287246D01*
X71248412Y-52221557D01*
X71437816Y-52125051D01*
X71524478Y-52062088D01*
X71609786Y-52000109D01*
X71609788Y-52000106D01*
X71609792Y-52000104D01*
X71760104Y-51849792D01*
X71760106Y-51849788D01*
X71760109Y-51849786D01*
X71885048Y-51677820D01*
X71885047Y-51677820D01*
X71885051Y-51677816D01*
X71889514Y-51669054D01*
X71937488Y-51618259D01*
X72005308Y-51601463D01*
X72071444Y-51623999D01*
X72110486Y-51669056D01*
X72114951Y-51677820D01*
X72239890Y-51849786D01*
X72390213Y-52000109D01*
X72562179Y-52125048D01*
X72562181Y-52125049D01*
X72562184Y-52125051D01*
X72751588Y-52221557D01*
X72953757Y-52287246D01*
X73163713Y-52320500D01*
X73163714Y-52320500D01*
X73376286Y-52320500D01*
X73376287Y-52320500D01*
X73586243Y-52287246D01*
X73788412Y-52221557D01*
X73977816Y-52125051D01*
X74064478Y-52062088D01*
X74149784Y-52000110D01*
X74149784Y-52000109D01*
X74149792Y-52000104D01*
X74263717Y-51886178D01*
X74325036Y-51852696D01*
X74394728Y-51857680D01*
X74450662Y-51899551D01*
X74467577Y-51930528D01*
X74516646Y-52062088D01*
X74516649Y-52062093D01*
X74602809Y-52177187D01*
X74602812Y-52177190D01*
X74717906Y-52263350D01*
X74717913Y-52263354D01*
X74852620Y-52313596D01*
X74852627Y-52313598D01*
X74912155Y-52319999D01*
X74912172Y-52320000D01*
X75560000Y-52320000D01*
X75560000Y-51403012D01*
X75617007Y-51435925D01*
X75744174Y-51470000D01*
X75875826Y-51470000D01*
X76002993Y-51435925D01*
X76060000Y-51403012D01*
X76060000Y-52320000D01*
X76707828Y-52320000D01*
X76707844Y-52319999D01*
X76767372Y-52313598D01*
X76767379Y-52313596D01*
X76902086Y-52263354D01*
X76902093Y-52263350D01*
X77017187Y-52177190D01*
X77017190Y-52177187D01*
X77103350Y-52062093D01*
X77103354Y-52062086D01*
X77152422Y-51930529D01*
X77194293Y-51874595D01*
X77259757Y-51850178D01*
X77328030Y-51865030D01*
X77356285Y-51886181D01*
X77470213Y-52000109D01*
X77642179Y-52125048D01*
X77642181Y-52125049D01*
X77642184Y-52125051D01*
X77831588Y-52221557D01*
X78033757Y-52287246D01*
X78243713Y-52320500D01*
X78243714Y-52320500D01*
X78456286Y-52320500D01*
X78456287Y-52320500D01*
X78666243Y-52287246D01*
X78868412Y-52221557D01*
X79057816Y-52125051D01*
X79144478Y-52062088D01*
X79229786Y-52000109D01*
X79229788Y-52000106D01*
X79229792Y-52000104D01*
X79380104Y-51849792D01*
X79380106Y-51849788D01*
X79380109Y-51849786D01*
X79505048Y-51677820D01*
X79505047Y-51677820D01*
X79505051Y-51677816D01*
X79509514Y-51669054D01*
X79557488Y-51618259D01*
X79625308Y-51601463D01*
X79691444Y-51623999D01*
X79730486Y-51669056D01*
X79734951Y-51677820D01*
X79859890Y-51849786D01*
X80010213Y-52000109D01*
X80182179Y-52125048D01*
X80182181Y-52125049D01*
X80182184Y-52125051D01*
X80371588Y-52221557D01*
X80573757Y-52287246D01*
X80783713Y-52320500D01*
X80783714Y-52320500D01*
X80996286Y-52320500D01*
X80996287Y-52320500D01*
X81206243Y-52287246D01*
X81408412Y-52221557D01*
X81597816Y-52125051D01*
X81684478Y-52062088D01*
X81769786Y-52000109D01*
X81769788Y-52000106D01*
X81769792Y-52000104D01*
X81920104Y-51849792D01*
X81920106Y-51849788D01*
X81920109Y-51849786D01*
X82045048Y-51677820D01*
X82045047Y-51677820D01*
X82045051Y-51677816D01*
X82049514Y-51669054D01*
X82097488Y-51618259D01*
X82165308Y-51601463D01*
X82231444Y-51623999D01*
X82270486Y-51669056D01*
X82274951Y-51677820D01*
X82399890Y-51849786D01*
X82550213Y-52000109D01*
X82722179Y-52125048D01*
X82722181Y-52125049D01*
X82722184Y-52125051D01*
X82911588Y-52221557D01*
X83113757Y-52287246D01*
X83323713Y-52320500D01*
X83323714Y-52320500D01*
X83536286Y-52320500D01*
X83536287Y-52320500D01*
X83746243Y-52287246D01*
X83948412Y-52221557D01*
X84137816Y-52125051D01*
X84224478Y-52062088D01*
X84309786Y-52000109D01*
X84309788Y-52000106D01*
X84309792Y-52000104D01*
X84460104Y-51849792D01*
X84460106Y-51849788D01*
X84460109Y-51849786D01*
X84585048Y-51677820D01*
X84585047Y-51677820D01*
X84585051Y-51677816D01*
X84681557Y-51488412D01*
X84747246Y-51286243D01*
X84780500Y-51076287D01*
X84780500Y-50863713D01*
X84747246Y-50653757D01*
X84686568Y-50467012D01*
X84680500Y-50428696D01*
X84680500Y-44631306D01*
X84686569Y-44592988D01*
X84719999Y-44490099D01*
X84747246Y-44406243D01*
X84780500Y-44196287D01*
X84780500Y-43983713D01*
X84747246Y-43773757D01*
X84681557Y-43571588D01*
X84585051Y-43382184D01*
X84585049Y-43382181D01*
X84585048Y-43382179D01*
X84460109Y-43210213D01*
X84309786Y-43059890D01*
X84137820Y-42934951D01*
X83948414Y-42838444D01*
X83948413Y-42838443D01*
X83948412Y-42838443D01*
X83746243Y-42772754D01*
X83746241Y-42772753D01*
X83746240Y-42772753D01*
X83584957Y-42747208D01*
X83536287Y-42739500D01*
X83323713Y-42739500D01*
X83275042Y-42747208D01*
X83113760Y-42772753D01*
X82911585Y-42838444D01*
X82722179Y-42934951D01*
X82550213Y-43059890D01*
X82399890Y-43210213D01*
X82274949Y-43382182D01*
X82270484Y-43390946D01*
X82222509Y-43441742D01*
X82154688Y-43458536D01*
X82088553Y-43435998D01*
X82049516Y-43390946D01*
X82045050Y-43382182D01*
X81920109Y-43210213D01*
X81769786Y-43059890D01*
X81597820Y-42934951D01*
X81408414Y-42838444D01*
X81408413Y-42838443D01*
X81408412Y-42838443D01*
X81206243Y-42772754D01*
X81206241Y-42772753D01*
X81206240Y-42772753D01*
X81044957Y-42747208D01*
X80996287Y-42739500D01*
X80783713Y-42739500D01*
X80735042Y-42747208D01*
X80573760Y-42772753D01*
X80371585Y-42838444D01*
X80182179Y-42934951D01*
X80010213Y-43059890D01*
X79859890Y-43210213D01*
X79734949Y-43382182D01*
X79730484Y-43390946D01*
X79682509Y-43441742D01*
X79614688Y-43458536D01*
X79548553Y-43435998D01*
X79509516Y-43390946D01*
X79505050Y-43382182D01*
X79380109Y-43210213D01*
X79229786Y-43059890D01*
X79057820Y-42934951D01*
X78868414Y-42838444D01*
X78868413Y-42838443D01*
X78868412Y-42838443D01*
X78666243Y-42772754D01*
X78666241Y-42772753D01*
X78666240Y-42772753D01*
X78504957Y-42747208D01*
X78456287Y-42739500D01*
X78243713Y-42739500D01*
X78195042Y-42747208D01*
X78033760Y-42772753D01*
X77831585Y-42838444D01*
X77642179Y-42934951D01*
X77470215Y-43059889D01*
X77356285Y-43173819D01*
X77294962Y-43207303D01*
X77225270Y-43202319D01*
X77169337Y-43160447D01*
X77152422Y-43129470D01*
X77103354Y-42997913D01*
X77103350Y-42997906D01*
X77017190Y-42882812D01*
X77017187Y-42882809D01*
X76902093Y-42796649D01*
X76902086Y-42796645D01*
X76767379Y-42746403D01*
X76767372Y-42746401D01*
X76707844Y-42740000D01*
X76060000Y-42740000D01*
X76060000Y-43656988D01*
X76002993Y-43624075D01*
X75875826Y-43590000D01*
X75744174Y-43590000D01*
X75617007Y-43624075D01*
X75560000Y-43656988D01*
X75560000Y-42740000D01*
X74912155Y-42740000D01*
X74852627Y-42746401D01*
X74852620Y-42746403D01*
X74717913Y-42796645D01*
X74717906Y-42796649D01*
X74602812Y-42882809D01*
X74602809Y-42882812D01*
X74516649Y-42997906D01*
X74516646Y-42997912D01*
X74467577Y-43129471D01*
X74425705Y-43185404D01*
X74360241Y-43209821D01*
X74291968Y-43194969D01*
X74263714Y-43173818D01*
X74149786Y-43059890D01*
X73977820Y-42934951D01*
X73788414Y-42838444D01*
X73788413Y-42838443D01*
X73788412Y-42838443D01*
X73586243Y-42772754D01*
X73586241Y-42772753D01*
X73586240Y-42772753D01*
X73424957Y-42747208D01*
X73376287Y-42739500D01*
X73163713Y-42739500D01*
X73115042Y-42747208D01*
X72953760Y-42772753D01*
X72751585Y-42838444D01*
X72562179Y-42934951D01*
X72390213Y-43059890D01*
X72239890Y-43210213D01*
X72114949Y-43382182D01*
X72110484Y-43390946D01*
X72062509Y-43441742D01*
X71994688Y-43458536D01*
X71928553Y-43435998D01*
X71889516Y-43390946D01*
X71885050Y-43382182D01*
X71760109Y-43210213D01*
X71609786Y-43059890D01*
X71437820Y-42934951D01*
X71248414Y-42838444D01*
X71248413Y-42838443D01*
X71248412Y-42838443D01*
X71046243Y-42772754D01*
X71046241Y-42772753D01*
X71046240Y-42772753D01*
X70884957Y-42747208D01*
X70836287Y-42739500D01*
X70623713Y-42739500D01*
X70575042Y-42747208D01*
X70413760Y-42772753D01*
X70211585Y-42838444D01*
X70022179Y-42934951D01*
X69850213Y-43059890D01*
X69699890Y-43210213D01*
X69574949Y-43382182D01*
X69570484Y-43390946D01*
X69522509Y-43441742D01*
X69454688Y-43458536D01*
X69388553Y-43435998D01*
X69349516Y-43390946D01*
X69345050Y-43382182D01*
X69220109Y-43210213D01*
X69069786Y-43059890D01*
X68897820Y-42934951D01*
X68708414Y-42838444D01*
X68708413Y-42838443D01*
X68708412Y-42838443D01*
X68506243Y-42772754D01*
X68506241Y-42772753D01*
X68506240Y-42772753D01*
X68344957Y-42747208D01*
X68296287Y-42739500D01*
X68083713Y-42739500D01*
X68035042Y-42747208D01*
X67873760Y-42772753D01*
X67671585Y-42838444D01*
X67482179Y-42934951D01*
X67310213Y-43059890D01*
X67159890Y-43210213D01*
X67034949Y-43382182D01*
X67030484Y-43390946D01*
X66982509Y-43441742D01*
X66914688Y-43458536D01*
X66848553Y-43435998D01*
X66809516Y-43390946D01*
X66805050Y-43382182D01*
X66680109Y-43210213D01*
X66529786Y-43059890D01*
X66357820Y-42934951D01*
X66168414Y-42838444D01*
X66168413Y-42838443D01*
X66168412Y-42838443D01*
X65966243Y-42772754D01*
X65966241Y-42772753D01*
X65966240Y-42772753D01*
X65804957Y-42747208D01*
X65756287Y-42739500D01*
X65543713Y-42739500D01*
X65495042Y-42747208D01*
X65333760Y-42772753D01*
X65131585Y-42838444D01*
X64942179Y-42934951D01*
X64770213Y-43059890D01*
X64619890Y-43210213D01*
X64494949Y-43382182D01*
X64490484Y-43390946D01*
X64442509Y-43441742D01*
X64374688Y-43458536D01*
X64308553Y-43435998D01*
X64269516Y-43390946D01*
X64265050Y-43382182D01*
X64140109Y-43210213D01*
X63989786Y-43059890D01*
X63817820Y-42934951D01*
X63628414Y-42838444D01*
X63628413Y-42838443D01*
X63628412Y-42838443D01*
X63426243Y-42772754D01*
X63426241Y-42772753D01*
X63426240Y-42772753D01*
X63264957Y-42747208D01*
X63216287Y-42739500D01*
X63003713Y-42739500D01*
X62955042Y-42747208D01*
X62793760Y-42772753D01*
X62591585Y-42838444D01*
X62402179Y-42934951D01*
X62230213Y-43059890D01*
X62079890Y-43210213D01*
X61954949Y-43382182D01*
X61950484Y-43390946D01*
X61902509Y-43441742D01*
X61834688Y-43458536D01*
X61768553Y-43435998D01*
X61729516Y-43390946D01*
X61725050Y-43382182D01*
X61600109Y-43210213D01*
X61449786Y-43059890D01*
X61277820Y-42934951D01*
X61088414Y-42838444D01*
X61088413Y-42838443D01*
X61088412Y-42838443D01*
X60886243Y-42772754D01*
X60886241Y-42772753D01*
X60886240Y-42772753D01*
X60724957Y-42747208D01*
X60676287Y-42739500D01*
X60463713Y-42739500D01*
X60415042Y-42747208D01*
X60253760Y-42772753D01*
X60051585Y-42838444D01*
X59862179Y-42934951D01*
X59690213Y-43059890D01*
X59539890Y-43210213D01*
X59414951Y-43382179D01*
X59318444Y-43571585D01*
X59252753Y-43773760D01*
X59219500Y-43983713D01*
X44500500Y-43983713D01*
X44500500Y-40624500D01*
X44520185Y-40557461D01*
X44572989Y-40511706D01*
X44624500Y-40500500D01*
X99375500Y-40500500D01*
X99442539Y-40520185D01*
G37*
%TD.AperFunction*%
%TD*%
M02*
