%TF.GenerationSoftware,KiCad,Pcbnew,9.0.0*%
%TF.CreationDate,2025-05-29T23:41:57+02:00*%
%TF.ProjectId,hunity-gru-master,68756e69-7479-42d6-9772-752d6d617374,1.0*%
%TF.SameCoordinates,Original*%
%TF.FileFunction,Legend,Top*%
%TF.FilePolarity,Positive*%
%FSLAX46Y46*%
G04 Gerber Fmt 4.6, Leading zero omitted, Abs format (unit mm)*
G04 Created by KiCad (PCBNEW 9.0.0) date 2025-05-29 23:41:57*
%MOMM*%
%LPD*%
G01*
G04 APERTURE LIST*
%ADD10C,0.175000*%
%ADD11C,0.120000*%
%ADD12C,0.100000*%
G04 APERTURE END LIST*
D10*
X70744171Y-46427142D02*
X70744171Y-46727142D01*
X70272742Y-46855714D02*
X70272742Y-46427142D01*
X70272742Y-46427142D02*
X71172742Y-46427142D01*
X71172742Y-46427142D02*
X71172742Y-46855714D01*
X70272742Y-47241428D02*
X71172742Y-47241428D01*
X71172742Y-47241428D02*
X70272742Y-47755714D01*
X70272742Y-47755714D02*
X71172742Y-47755714D01*
X71087028Y-48141428D02*
X71129885Y-48184285D01*
X71129885Y-48184285D02*
X71172742Y-48270000D01*
X71172742Y-48270000D02*
X71172742Y-48484285D01*
X71172742Y-48484285D02*
X71129885Y-48570000D01*
X71129885Y-48570000D02*
X71087028Y-48612857D01*
X71087028Y-48612857D02*
X71001314Y-48655714D01*
X71001314Y-48655714D02*
X70915600Y-48655714D01*
X70915600Y-48655714D02*
X70787028Y-48612857D01*
X70787028Y-48612857D02*
X70272742Y-48098571D01*
X70272742Y-48098571D02*
X70272742Y-48655714D01*
X60584171Y-46427142D02*
X60584171Y-46727142D01*
X60112742Y-46855714D02*
X60112742Y-46427142D01*
X60112742Y-46427142D02*
X61012742Y-46427142D01*
X61012742Y-46427142D02*
X61012742Y-46855714D01*
X60112742Y-47241428D02*
X61012742Y-47241428D01*
X61012742Y-47241428D02*
X60112742Y-47755714D01*
X60112742Y-47755714D02*
X61012742Y-47755714D01*
X61012742Y-48570000D02*
X61012742Y-48398571D01*
X61012742Y-48398571D02*
X60969885Y-48312857D01*
X60969885Y-48312857D02*
X60927028Y-48270000D01*
X60927028Y-48270000D02*
X60798457Y-48184285D01*
X60798457Y-48184285D02*
X60627028Y-48141428D01*
X60627028Y-48141428D02*
X60284171Y-48141428D01*
X60284171Y-48141428D02*
X60198457Y-48184285D01*
X60198457Y-48184285D02*
X60155600Y-48227142D01*
X60155600Y-48227142D02*
X60112742Y-48312857D01*
X60112742Y-48312857D02*
X60112742Y-48484285D01*
X60112742Y-48484285D02*
X60155600Y-48570000D01*
X60155600Y-48570000D02*
X60198457Y-48612857D01*
X60198457Y-48612857D02*
X60284171Y-48655714D01*
X60284171Y-48655714D02*
X60498457Y-48655714D01*
X60498457Y-48655714D02*
X60584171Y-48612857D01*
X60584171Y-48612857D02*
X60627028Y-48570000D01*
X60627028Y-48570000D02*
X60669885Y-48484285D01*
X60669885Y-48484285D02*
X60669885Y-48312857D01*
X60669885Y-48312857D02*
X60627028Y-48227142D01*
X60627028Y-48227142D02*
X60584171Y-48184285D01*
X60584171Y-48184285D02*
X60498457Y-48141428D01*
X83872742Y-47348571D02*
X83872742Y-46919999D01*
X83872742Y-46919999D02*
X83444171Y-46877142D01*
X83444171Y-46877142D02*
X83487028Y-46919999D01*
X83487028Y-46919999D02*
X83529885Y-47005714D01*
X83529885Y-47005714D02*
X83529885Y-47219999D01*
X83529885Y-47219999D02*
X83487028Y-47305714D01*
X83487028Y-47305714D02*
X83444171Y-47348571D01*
X83444171Y-47348571D02*
X83358457Y-47391428D01*
X83358457Y-47391428D02*
X83144171Y-47391428D01*
X83144171Y-47391428D02*
X83058457Y-47348571D01*
X83058457Y-47348571D02*
X83015600Y-47305714D01*
X83015600Y-47305714D02*
X82972742Y-47219999D01*
X82972742Y-47219999D02*
X82972742Y-47005714D01*
X82972742Y-47005714D02*
X83015600Y-46919999D01*
X83015600Y-46919999D02*
X83058457Y-46877142D01*
X83872742Y-47648571D02*
X82972742Y-47948571D01*
X82972742Y-47948571D02*
X83872742Y-48248571D01*
X63124171Y-46427142D02*
X63124171Y-46727142D01*
X62652742Y-46855714D02*
X62652742Y-46427142D01*
X62652742Y-46427142D02*
X63552742Y-46427142D01*
X63552742Y-46427142D02*
X63552742Y-46855714D01*
X62652742Y-47241428D02*
X63552742Y-47241428D01*
X63552742Y-47241428D02*
X62652742Y-47755714D01*
X62652742Y-47755714D02*
X63552742Y-47755714D01*
X63552742Y-48612857D02*
X63552742Y-48184285D01*
X63552742Y-48184285D02*
X63124171Y-48141428D01*
X63124171Y-48141428D02*
X63167028Y-48184285D01*
X63167028Y-48184285D02*
X63209885Y-48270000D01*
X63209885Y-48270000D02*
X63209885Y-48484285D01*
X63209885Y-48484285D02*
X63167028Y-48570000D01*
X63167028Y-48570000D02*
X63124171Y-48612857D01*
X63124171Y-48612857D02*
X63038457Y-48655714D01*
X63038457Y-48655714D02*
X62824171Y-48655714D01*
X62824171Y-48655714D02*
X62738457Y-48612857D01*
X62738457Y-48612857D02*
X62695600Y-48570000D01*
X62695600Y-48570000D02*
X62652742Y-48484285D01*
X62652742Y-48484285D02*
X62652742Y-48270000D01*
X62652742Y-48270000D02*
X62695600Y-48184285D01*
X62695600Y-48184285D02*
X62738457Y-48141428D01*
X65664171Y-46427142D02*
X65664171Y-46727142D01*
X65192742Y-46855714D02*
X65192742Y-46427142D01*
X65192742Y-46427142D02*
X66092742Y-46427142D01*
X66092742Y-46427142D02*
X66092742Y-46855714D01*
X65192742Y-47241428D02*
X66092742Y-47241428D01*
X66092742Y-47241428D02*
X65192742Y-47755714D01*
X65192742Y-47755714D02*
X66092742Y-47755714D01*
X65792742Y-48570000D02*
X65192742Y-48570000D01*
X66135600Y-48355714D02*
X65492742Y-48141428D01*
X65492742Y-48141428D02*
X65492742Y-48698571D01*
X80475600Y-46448571D02*
X80432742Y-46577143D01*
X80432742Y-46577143D02*
X80432742Y-46791428D01*
X80432742Y-46791428D02*
X80475600Y-46877143D01*
X80475600Y-46877143D02*
X80518457Y-46920000D01*
X80518457Y-46920000D02*
X80604171Y-46962857D01*
X80604171Y-46962857D02*
X80689885Y-46962857D01*
X80689885Y-46962857D02*
X80775600Y-46920000D01*
X80775600Y-46920000D02*
X80818457Y-46877143D01*
X80818457Y-46877143D02*
X80861314Y-46791428D01*
X80861314Y-46791428D02*
X80904171Y-46620000D01*
X80904171Y-46620000D02*
X80947028Y-46534285D01*
X80947028Y-46534285D02*
X80989885Y-46491428D01*
X80989885Y-46491428D02*
X81075600Y-46448571D01*
X81075600Y-46448571D02*
X81161314Y-46448571D01*
X81161314Y-46448571D02*
X81247028Y-46491428D01*
X81247028Y-46491428D02*
X81289885Y-46534285D01*
X81289885Y-46534285D02*
X81332742Y-46620000D01*
X81332742Y-46620000D02*
X81332742Y-46834285D01*
X81332742Y-46834285D02*
X81289885Y-46962857D01*
X80518457Y-47862857D02*
X80475600Y-47820000D01*
X80475600Y-47820000D02*
X80432742Y-47691428D01*
X80432742Y-47691428D02*
X80432742Y-47605714D01*
X80432742Y-47605714D02*
X80475600Y-47477143D01*
X80475600Y-47477143D02*
X80561314Y-47391428D01*
X80561314Y-47391428D02*
X80647028Y-47348571D01*
X80647028Y-47348571D02*
X80818457Y-47305714D01*
X80818457Y-47305714D02*
X80947028Y-47305714D01*
X80947028Y-47305714D02*
X81118457Y-47348571D01*
X81118457Y-47348571D02*
X81204171Y-47391428D01*
X81204171Y-47391428D02*
X81289885Y-47477143D01*
X81289885Y-47477143D02*
X81332742Y-47605714D01*
X81332742Y-47605714D02*
X81332742Y-47691428D01*
X81332742Y-47691428D02*
X81289885Y-47820000D01*
X81289885Y-47820000D02*
X81247028Y-47862857D01*
X80432742Y-48677143D02*
X80432742Y-48248571D01*
X80432742Y-48248571D02*
X81332742Y-48248571D01*
X73284171Y-46427142D02*
X73284171Y-46727142D01*
X72812742Y-46855714D02*
X72812742Y-46427142D01*
X72812742Y-46427142D02*
X73712742Y-46427142D01*
X73712742Y-46427142D02*
X73712742Y-46855714D01*
X72812742Y-47241428D02*
X73712742Y-47241428D01*
X73712742Y-47241428D02*
X72812742Y-47755714D01*
X72812742Y-47755714D02*
X73712742Y-47755714D01*
X72812742Y-48655714D02*
X72812742Y-48141428D01*
X72812742Y-48398571D02*
X73712742Y-48398571D01*
X73712742Y-48398571D02*
X73584171Y-48312857D01*
X73584171Y-48312857D02*
X73498457Y-48227142D01*
X73498457Y-48227142D02*
X73455600Y-48141428D01*
X76209885Y-46834286D02*
X76252742Y-46748572D01*
X76252742Y-46748572D02*
X76252742Y-46620000D01*
X76252742Y-46620000D02*
X76209885Y-46491429D01*
X76209885Y-46491429D02*
X76124171Y-46405714D01*
X76124171Y-46405714D02*
X76038457Y-46362857D01*
X76038457Y-46362857D02*
X75867028Y-46320000D01*
X75867028Y-46320000D02*
X75738457Y-46320000D01*
X75738457Y-46320000D02*
X75567028Y-46362857D01*
X75567028Y-46362857D02*
X75481314Y-46405714D01*
X75481314Y-46405714D02*
X75395600Y-46491429D01*
X75395600Y-46491429D02*
X75352742Y-46620000D01*
X75352742Y-46620000D02*
X75352742Y-46705714D01*
X75352742Y-46705714D02*
X75395600Y-46834286D01*
X75395600Y-46834286D02*
X75438457Y-46877143D01*
X75438457Y-46877143D02*
X75738457Y-46877143D01*
X75738457Y-46877143D02*
X75738457Y-46705714D01*
X75352742Y-47262857D02*
X76252742Y-47262857D01*
X76252742Y-47262857D02*
X75352742Y-47777143D01*
X75352742Y-47777143D02*
X76252742Y-47777143D01*
X75352742Y-48205714D02*
X76252742Y-48205714D01*
X76252742Y-48205714D02*
X76252742Y-48420000D01*
X76252742Y-48420000D02*
X76209885Y-48548571D01*
X76209885Y-48548571D02*
X76124171Y-48634286D01*
X76124171Y-48634286D02*
X76038457Y-48677143D01*
X76038457Y-48677143D02*
X75867028Y-48720000D01*
X75867028Y-48720000D02*
X75738457Y-48720000D01*
X75738457Y-48720000D02*
X75567028Y-48677143D01*
X75567028Y-48677143D02*
X75481314Y-48634286D01*
X75481314Y-48634286D02*
X75395600Y-48548571D01*
X75395600Y-48548571D02*
X75352742Y-48420000D01*
X75352742Y-48420000D02*
X75352742Y-48205714D01*
X77935600Y-46427142D02*
X77892742Y-46555714D01*
X77892742Y-46555714D02*
X77892742Y-46769999D01*
X77892742Y-46769999D02*
X77935600Y-46855714D01*
X77935600Y-46855714D02*
X77978457Y-46898571D01*
X77978457Y-46898571D02*
X78064171Y-46941428D01*
X78064171Y-46941428D02*
X78149885Y-46941428D01*
X78149885Y-46941428D02*
X78235600Y-46898571D01*
X78235600Y-46898571D02*
X78278457Y-46855714D01*
X78278457Y-46855714D02*
X78321314Y-46769999D01*
X78321314Y-46769999D02*
X78364171Y-46598571D01*
X78364171Y-46598571D02*
X78407028Y-46512856D01*
X78407028Y-46512856D02*
X78449885Y-46469999D01*
X78449885Y-46469999D02*
X78535600Y-46427142D01*
X78535600Y-46427142D02*
X78621314Y-46427142D01*
X78621314Y-46427142D02*
X78707028Y-46469999D01*
X78707028Y-46469999D02*
X78749885Y-46512856D01*
X78749885Y-46512856D02*
X78792742Y-46598571D01*
X78792742Y-46598571D02*
X78792742Y-46812856D01*
X78792742Y-46812856D02*
X78749885Y-46941428D01*
X77892742Y-47327142D02*
X78792742Y-47327142D01*
X78792742Y-47327142D02*
X78792742Y-47541428D01*
X78792742Y-47541428D02*
X78749885Y-47669999D01*
X78749885Y-47669999D02*
X78664171Y-47755714D01*
X78664171Y-47755714D02*
X78578457Y-47798571D01*
X78578457Y-47798571D02*
X78407028Y-47841428D01*
X78407028Y-47841428D02*
X78278457Y-47841428D01*
X78278457Y-47841428D02*
X78107028Y-47798571D01*
X78107028Y-47798571D02*
X78021314Y-47755714D01*
X78021314Y-47755714D02*
X77935600Y-47669999D01*
X77935600Y-47669999D02*
X77892742Y-47541428D01*
X77892742Y-47541428D02*
X77892742Y-47327142D01*
X78149885Y-48184285D02*
X78149885Y-48612857D01*
X77892742Y-48098571D02*
X78792742Y-48398571D01*
X78792742Y-48398571D02*
X77892742Y-48698571D01*
X68204171Y-46427142D02*
X68204171Y-46727142D01*
X67732742Y-46855714D02*
X67732742Y-46427142D01*
X67732742Y-46427142D02*
X68632742Y-46427142D01*
X68632742Y-46427142D02*
X68632742Y-46855714D01*
X67732742Y-47241428D02*
X68632742Y-47241428D01*
X68632742Y-47241428D02*
X67732742Y-47755714D01*
X67732742Y-47755714D02*
X68632742Y-47755714D01*
X68632742Y-48098571D02*
X68632742Y-48655714D01*
X68632742Y-48655714D02*
X68289885Y-48355714D01*
X68289885Y-48355714D02*
X68289885Y-48484285D01*
X68289885Y-48484285D02*
X68247028Y-48570000D01*
X68247028Y-48570000D02*
X68204171Y-48612857D01*
X68204171Y-48612857D02*
X68118457Y-48655714D01*
X68118457Y-48655714D02*
X67904171Y-48655714D01*
X67904171Y-48655714D02*
X67818457Y-48612857D01*
X67818457Y-48612857D02*
X67775600Y-48570000D01*
X67775600Y-48570000D02*
X67732742Y-48484285D01*
X67732742Y-48484285D02*
X67732742Y-48227142D01*
X67732742Y-48227142D02*
X67775600Y-48141428D01*
X67775600Y-48141428D02*
X67818457Y-48098571D01*
D11*
%TO.C,R1*%
X86776500Y-48540258D02*
X86776500Y-48065742D01*
X87821500Y-48540258D02*
X87821500Y-48065742D01*
%TO.C,C4*%
X92515580Y-51168500D02*
X92234420Y-51168500D01*
X92515580Y-52188500D02*
X92234420Y-52188500D01*
%TO.C,J1*%
X59190000Y-40240000D02*
X59190000Y-42700000D01*
X59190000Y-42700000D02*
X84810000Y-42700000D01*
X60140000Y-42930000D02*
X60140000Y-42700000D01*
X61000000Y-42930000D02*
X61000000Y-42700000D01*
X61840000Y-42700000D02*
X61840000Y-40240000D01*
X62680000Y-43012642D02*
X62680000Y-42700000D01*
X63540000Y-43012642D02*
X63540000Y-42700000D01*
X64380000Y-42700000D02*
X64380000Y-40240000D01*
X65220000Y-43012642D02*
X65220000Y-42700000D01*
X66080000Y-43012642D02*
X66080000Y-42700000D01*
X66920000Y-42700000D02*
X66920000Y-40240000D01*
X67760000Y-43012642D02*
X67760000Y-42700000D01*
X68620000Y-43012642D02*
X68620000Y-42700000D01*
X69460000Y-42700000D02*
X69460000Y-40240000D01*
X70300000Y-43012642D02*
X70300000Y-42700000D01*
X71160000Y-43012642D02*
X71160000Y-42700000D01*
X72000000Y-42700000D02*
X72000000Y-40240000D01*
X72840000Y-43012642D02*
X72840000Y-42700000D01*
X73700000Y-43012642D02*
X73700000Y-42700000D01*
X74540000Y-42700000D02*
X74540000Y-40240000D01*
X75380000Y-43012642D02*
X75380000Y-42700000D01*
X76240000Y-43012642D02*
X76240000Y-42700000D01*
X77080000Y-42700000D02*
X77080000Y-40240000D01*
X77920000Y-43012642D02*
X77920000Y-42700000D01*
X78780000Y-43012642D02*
X78780000Y-42700000D01*
X79620000Y-42700000D02*
X79620000Y-40240000D01*
X80460000Y-43012642D02*
X80460000Y-42700000D01*
X81320000Y-43012642D02*
X81320000Y-42700000D01*
X82160000Y-42700000D02*
X82160000Y-40240000D01*
X83000000Y-43012642D02*
X83000000Y-42700000D01*
X83860000Y-43012642D02*
X83860000Y-42700000D01*
X84810000Y-42700000D02*
X84810000Y-40240000D01*
%TO.C,R3*%
X94555500Y-51227742D02*
X94555500Y-51702258D01*
X95600500Y-51227742D02*
X95600500Y-51702258D01*
%TO.C,C2*%
X50787920Y-46291000D02*
X51069080Y-46291000D01*
X50787920Y-47311000D02*
X51069080Y-47311000D01*
%TO.C,C1*%
X48044500Y-49879580D02*
X48044500Y-49598420D01*
X49064500Y-49879580D02*
X49064500Y-49598420D01*
%TO.C,C3*%
X93029580Y-45394500D02*
X92748420Y-45394500D01*
X93029580Y-46414500D02*
X92748420Y-46414500D01*
%TO.C,R2*%
X86776500Y-55049742D02*
X86776500Y-55524258D01*
X87821500Y-55049742D02*
X87821500Y-55524258D01*
%TO.C,U2*%
X90788000Y-48790500D02*
X90788000Y-47990500D01*
X90788000Y-48790500D02*
X90788000Y-49590500D01*
X93908000Y-48790500D02*
X93908000Y-47990500D01*
X93908000Y-48790500D02*
X93908000Y-49590500D01*
D12*
%TO.C,U1*%
X49558500Y-47703000D02*
X49558500Y-47853000D01*
X49568500Y-47703000D02*
X49718500Y-47703000D01*
X49568500Y-50403000D02*
X49568500Y-50253000D01*
X49568500Y-50403000D02*
X49718500Y-50403000D01*
X52268500Y-50253000D02*
X52268500Y-50403000D01*
X52268500Y-50403000D02*
X52118500Y-50403000D01*
D11*
%TO.C,D1*%
X94343000Y-47515000D02*
X94343000Y-49800000D01*
X94343000Y-49800000D02*
X95813000Y-49800000D01*
X95813000Y-49800000D02*
X95813000Y-47515000D01*
%TO.C,J2*%
X59240000Y-52430000D02*
X84760000Y-52430000D01*
X59240000Y-60760000D02*
X59240000Y-52430000D01*
X60210000Y-52430000D02*
X60210000Y-52080000D01*
X60930000Y-52430000D02*
X60930000Y-52080000D01*
X61840000Y-60760000D02*
X61840000Y-52430000D01*
X62750000Y-52430000D02*
X62750000Y-52020000D01*
X63470000Y-52430000D02*
X63470000Y-52020000D01*
X64380000Y-60760000D02*
X64380000Y-52430000D01*
X65290000Y-52430000D02*
X65290000Y-52020000D01*
X66010000Y-52430000D02*
X66010000Y-52020000D01*
X66920000Y-60760000D02*
X66920000Y-52430000D01*
X67830000Y-52430000D02*
X67830000Y-52020000D01*
X68550000Y-52430000D02*
X68550000Y-52020000D01*
X69460000Y-60760000D02*
X69460000Y-52430000D01*
X70370000Y-52430000D02*
X70370000Y-52020000D01*
X71090000Y-52430000D02*
X71090000Y-52020000D01*
X72000000Y-60760000D02*
X72000000Y-52430000D01*
X72910000Y-52430000D02*
X72910000Y-52020000D01*
X73630000Y-52430000D02*
X73630000Y-52020000D01*
X74540000Y-60760000D02*
X74540000Y-52430000D01*
X75450000Y-52430000D02*
X75450000Y-52020000D01*
X76170000Y-52430000D02*
X76170000Y-52020000D01*
X77080000Y-60760000D02*
X77080000Y-52430000D01*
X77990000Y-52430000D02*
X77990000Y-52020000D01*
X78710000Y-52430000D02*
X78710000Y-52020000D01*
X79620000Y-60760000D02*
X79620000Y-52430000D01*
X80530000Y-52430000D02*
X80530000Y-52020000D01*
X81250000Y-52430000D02*
X81250000Y-52020000D01*
X82160000Y-60760000D02*
X82160000Y-52430000D01*
X83070000Y-52430000D02*
X83070000Y-52020000D01*
X83790000Y-52430000D02*
X83790000Y-52020000D01*
X84760000Y-60760000D02*
X84760000Y-52430000D01*
%TD*%
M02*
